<svg width="417" height="134" viewBox="0 0 417 134" fill="none" xmlns="http://www.w3.org/2000/svg">
<rect x="5" y="29" width="355" height="100" rx="35" fill="#1A8AE9" stroke="white" stroke-width="10"/>
<path d="M68.784 111V44.664H103.92C114.992 44.664 123.024 46.264 128.016 49.464C133.008 52.664 135.504 57.816 135.504 64.92C135.504 67.416 135.184 69.72 134.544 71.832C133.904 73.944 133.264 75.448 132.624 76.344L131.664 77.688C133.84 78.776 135.376 81.432 136.272 85.656C136.656 87.384 136.848 89.368 136.848 91.608C136.848 97.624 134.992 102.36 131.28 105.816C127.632 109.272 122.128 111 114.768 111H68.784ZM107.28 77.784V72.792C107.28 71.96 107.024 71.32 106.512 70.872C106 70.36 105.36 70.104 104.592 70.104H101.808V77.784H107.28ZM109.968 82.488H101.808V87.96H109.968C110.672 87.96 111.28 87.704 111.792 87.192C112.368 86.616 112.656 85.944 112.656 85.176C112.656 84.408 112.4 83.768 111.888 83.256C111.376 82.744 110.736 82.488 109.968 82.488ZM172.652 43.704H180.62C192.14 43.704 200.524 46.424 205.772 51.864C211.02 57.304 213.644 65.848 213.644 77.496C213.644 89.144 210.988 97.816 205.676 103.512C200.428 109.144 192.076 111.96 180.62 111.96H172.652C161.196 111.96 152.812 109.144 147.5 103.512C142.188 97.816 139.532 89.144 139.532 77.496C139.532 65.848 142.156 57.304 147.404 51.864C152.716 46.424 161.132 43.704 172.652 43.704ZM173.9 75.288V86.424C173.9 87.256 174.124 87.928 174.572 88.44C175.084 88.952 175.724 89.208 176.492 89.208C177.324 89.208 177.996 88.952 178.508 88.44C179.084 87.928 179.372 87.256 179.372 86.424V75.288C179.372 74.52 179.084 73.88 178.508 73.368C177.996 72.856 177.324 72.6 176.492 72.6C175.724 72.6 175.084 72.856 174.572 73.368C174.124 73.88 173.9 74.52 173.9 75.288ZM269.91 111H233.91V95.352C232.118 94.584 230.87 94.04 230.166 93.72C229.462 93.4 228.31 92.728 226.71 91.704C225.174 90.68 224.022 89.624 223.254 88.536C221.142 85.656 219.798 82.104 219.222 77.88L215.094 44.664H249.078L251.478 77.496H253.59L255.606 44.664H288.726L284.598 77.88C284.022 82.104 282.678 85.656 280.566 88.536C279.798 89.624 278.614 90.68 277.014 91.704C275.478 92.728 274.358 93.4 273.654 93.72C272.95 94.04 271.702 94.584 269.91 95.352V111Z" fill="white"/>
</svg>
