<svg width="412" height="134" viewBox="0 0 412 134" fill="none" xmlns="http://www.w3.org/2000/svg">
<rect x="5" y="29" width="355" height="100" rx="35" fill="#F1A6E1" stroke="white" stroke-width="10"/>
<path d="M100.36 74.616V86.328H104.2V79.704L126.856 78.84V111C120.008 111.576 110.792 111.864 99.208 111.864C87.688 111.864 78.888 108.952 72.808 103.128C66.792 97.304 63.784 88.664 63.784 77.208C63.784 65.752 66.76 57.336 72.712 51.96C78.664 46.584 87.528 43.896 99.304 43.896C103.976 43.896 108.552 44.12 113.032 44.568C117.512 45.016 120.84 45.464 123.016 45.912L126.184 46.584V74.616H100.36ZM132.409 111V44.664H165.433V111H132.409ZM204.058 91.608V111H171.034V44.664H205.882C217.338 44.664 225.754 46.552 231.13 50.328C236.506 54.04 239.194 60.504 239.194 69.72C239.194 76.696 236.922 81.848 232.378 85.176C236.218 92.024 239.13 100.632 241.114 111H209.53C209.018 104.536 208.122 98.84 206.842 93.912L206.17 91.608H204.058ZM204.058 83.832H206.842C207.61 83.832 208.25 83.576 208.762 83.064C209.274 82.552 209.53 81.88 209.53 81.048V75.288C209.53 74.456 209.274 73.816 208.762 73.368C208.25 72.856 207.61 72.6 206.842 72.6H204.058V83.832ZM245.378 44.664H278.402V86.328H288.194V111H245.378V44.664Z" fill="white"/>
</svg>
