<svg width="801" height="556" viewBox="0 0 801 556" fill="none" xmlns="http://www.w3.org/2000/svg">
<path d="M400.174 550.404C508.793 550.404 607.349 520.305 678.891 471.381C750.408 422.473 795.348 354.394 795.348 278.58C795.348 202.766 750.408 134.688 678.891 85.7801C607.349 36.8557 508.793 6.75635 400.174 6.75635C291.555 6.75635 192.998 36.8557 121.457 85.7801C49.9395 134.688 5 202.766 5 278.58C5 354.394 49.9395 422.473 121.457 471.381C192.998 520.305 291.555 550.404 400.174 550.404Z" fill="#734500" stroke="black" stroke-width="10"/>
<path d="M173.378 260.896C241.98 260.896 297.378 203.885 297.378 133.828C297.378 63.7708 241.98 6.75977 173.378 6.75977C104.775 6.75977 49.3776 63.7708 49.3776 133.828C49.3776 203.885 104.775 260.896 173.378 260.896Z" fill="white" stroke="black" stroke-width="10"/>
<path d="M173.378 260.896C241.98 260.896 297.378 203.885 297.378 133.828C297.378 63.7708 241.98 6.75977 173.378 6.75977C104.775 6.75977 49.3776 63.7708 49.3776 133.828C49.3776 203.885 104.775 260.896 173.378 260.896Z" fill="white" stroke="black" stroke-width="10"/>
<path d="M173.377 206.574C211.851 206.574 242.6 173.792 242.6 133.909C242.6 94.0268 211.851 61.2446 173.377 61.2446C134.903 61.2446 104.153 94.0268 104.153 133.909C104.153 173.792 134.903 206.574 173.377 206.574Z" fill="#D9D9D9" stroke="black" stroke-width="10"/>
<path d="M45.9433 128.374L44.8624 134.275H50.8615H292.889H298.218L297.879 128.957C294.825 81.075 275.193 50.6739 250.204 31.9862C225.414 13.447 195.805 6.76202 173.048 5.25351C125.877 2.12654 62.5307 37.8158 45.9433 128.374Z" fill="#734500" stroke="black" stroke-width="10"/>
<path d="M519.175 260.892C587.778 260.892 643.175 203.881 643.175 133.824C643.175 63.7668 587.778 6.75586 519.175 6.75586C450.573 6.75586 395.175 63.7668 395.175 133.824C395.175 203.881 450.573 260.892 519.175 260.892Z" fill="white" stroke="black" stroke-width="10"/>
<path d="M519.175 260.892C587.778 260.892 643.175 203.881 643.175 133.824C643.175 63.7668 587.778 6.75586 519.175 6.75586C450.573 6.75586 395.175 63.7668 395.175 133.824C395.175 203.881 450.573 260.892 519.175 260.892Z" fill="white" stroke="black" stroke-width="10"/>
<path d="M519.175 206.57C557.649 206.57 588.398 173.788 588.398 133.906C588.398 94.0234 557.649 61.2412 519.175 61.2412C480.701 61.2412 449.952 94.0234 449.952 133.906C449.952 173.788 480.701 206.57 519.175 206.57Z" fill="#D9D9D9" stroke="black" stroke-width="10"/>
<path d="M391.302 128.308L390.221 134.209H396.22H638.248H643.577L643.238 128.89C640.184 81.0086 620.552 50.6075 595.563 31.9198C570.773 13.3806 541.163 6.69561 518.407 5.1871C471.236 2.06013 407.89 37.7494 391.302 128.308Z" fill="#734500" stroke="black" stroke-width="10"/>
<path d="M195.594 359.75C192.86 360.139 190.96 362.671 191.349 365.404L197.69 409.955C198.08 412.689 200.611 414.59 203.345 414.201C206.079 413.812 207.98 411.28 207.591 408.546L201.954 368.945L241.554 363.308C244.288 362.919 246.189 360.387 245.8 357.653C245.411 354.919 242.879 353.019 240.145 353.408L195.594 359.75ZM511.574 355.327C511.472 352.568 509.152 350.414 506.393 350.516L461.423 352.184C458.664 352.286 456.51 354.606 456.612 357.366C456.715 360.125 459.035 362.279 461.794 362.177L501.767 360.695L503.249 400.667C503.351 403.427 505.671 405.581 508.431 405.478C511.19 405.376 513.344 403.056 513.242 400.296L511.574 355.327ZM193.297 368.698C223.481 391.36 275.38 418.036 333.362 424.565C391.567 431.119 455.991 417.345 510.242 358.915L502.914 352.111C451.185 407.824 390.104 420.891 334.481 414.628C278.636 408.339 228.384 382.537 199.301 360.701L193.297 368.698Z" fill="black"/>
</svg>
