<svg width="806" height="576" viewBox="0 0 806 576" fill="none" xmlns="http://www.w3.org/2000/svg">
<path d="M402.927 570.883C512.338 570.883 611.604 539.624 683.649 488.83C755.68 438.045 800.854 367.417 800.854 288.854C800.854 210.292 755.68 139.664 683.649 88.8787C611.604 38.0842 512.338 6.8252 402.927 6.8252C293.515 6.8252 194.249 38.0842 122.204 88.8787C50.1732 139.664 5 210.292 5 288.854C5 367.417 50.1732 438.045 122.204 488.83C194.249 539.624 293.515 570.883 402.927 570.883Z" fill="#543300" stroke="black" stroke-width="10"/>
<path d="M174.529 270.301C243.736 270.301 299.369 211.054 299.369 138.565C299.369 66.0759 243.736 6.82812 174.529 6.82812C105.322 6.82812 49.6898 66.0759 49.6898 138.565C49.6898 211.054 105.322 270.301 174.529 270.301Z" fill="#543300" stroke="black" stroke-width="10"/>
<path d="M174.529 270.301C243.736 270.301 299.369 211.054 299.369 138.565C299.369 66.0759 243.736 6.82812 174.529 6.82812C105.322 6.82812 49.6898 66.0759 49.6898 138.565C49.6898 211.054 105.322 270.301 174.529 270.301Z" fill="white" stroke="black" stroke-width="10"/>
<path d="M174.53 213.898C213.392 213.898 244.206 179.809 244.206 138.646C244.206 97.4821 213.392 63.3931 174.53 63.3931C135.667 63.3931 104.853 97.4821 104.853 138.646C104.853 179.809 135.667 213.898 174.53 213.898Z" fill="#A0A0A0" stroke="black" stroke-width="10"/>
<path d="M46.2269 132.962L45.1832 138.836H51.1498H294.885H300.204L299.876 133.528C296.806 83.9209 277.085 52.4138 251.936 33.024C226.974 13.7779 197.144 6.83051 174.207 5.26288C126.593 2.00886 62.8972 39.1323 46.2269 132.962Z" fill="#543300" stroke="black" stroke-width="10"/>
<path d="M522.769 270.298C591.976 270.298 647.608 211.051 647.608 138.562C647.608 66.073 591.976 6.8252 522.769 6.8252C453.562 6.8252 397.929 66.073 397.929 138.562C397.929 211.051 453.562 270.298 522.769 270.298Z" fill="white" stroke="black" stroke-width="10"/>
<path d="M522.769 270.298C591.976 270.298 647.608 211.051 647.608 138.562C647.608 66.073 591.976 6.8252 522.769 6.8252C453.562 6.8252 397.929 66.073 397.929 138.562C397.929 211.051 453.562 270.298 522.769 270.298Z" fill="white" stroke="black" stroke-width="10"/>
<path d="M522.768 213.891C561.631 213.891 592.445 179.802 592.445 138.639C592.445 97.4753 561.631 63.3862 522.768 63.3862C483.906 63.3862 453.092 97.4753 453.092 138.639C453.092 179.802 483.906 213.891 522.768 213.891Z" fill="#A0A0A0" stroke="black" stroke-width="10"/>
<path d="M394.023 132.893L392.979 138.768H398.946H642.682H648L647.672 133.459C644.603 83.8525 624.882 52.3454 599.733 32.9557C574.77 13.7096 544.941 6.76216 522.003 5.19453C474.39 1.94051 410.693 39.0639 394.023 132.893Z" fill="#543300" stroke="black" stroke-width="10"/>
<path d="M196.981 373.31C194.241 373.659 192.304 376.163 192.653 378.902L198.339 423.541C198.687 426.281 201.191 428.219 203.93 427.87C206.669 427.521 208.607 425.017 208.258 422.278L203.204 382.599L242.884 377.544C245.623 377.195 247.561 374.692 247.212 371.953C246.863 369.213 244.359 367.276 241.62 367.624L196.981 373.31ZM515.074 368.471C514.93 365.713 512.577 363.595 509.82 363.739L464.881 366.089C462.123 366.234 460.005 368.586 460.149 371.344C460.293 374.101 462.646 376.22 465.403 376.076L505.349 373.986L507.438 413.932C507.582 416.689 509.935 418.808 512.692 418.664C515.45 418.519 517.569 416.167 517.424 413.409L515.074 368.471ZM194.552 382.224C224.942 405.747 277.214 433.451 335.63 440.233C394.293 447.044 459.184 432.718 513.796 372.078L506.365 365.386C454.25 423.255 392.75 436.797 336.783 430.3C280.568 423.774 229.97 396.993 200.673 374.316L194.552 382.224Z" fill="black"/>
</svg>
