<svg width="801" height="555" viewBox="0 0 801 555" fill="none" xmlns="http://www.w3.org/2000/svg">
<path d="M400.174 549.404C508.793 549.404 607.349 519.305 678.891 470.381C750.408 421.473 795.348 353.394 795.348 277.58C795.348 201.766 750.408 133.688 678.891 84.7801C607.349 35.8557 508.793 5.75635 400.174 5.75635C291.555 5.75635 192.998 35.8557 121.457 84.7801C49.9395 133.688 5 201.766 5 277.58C5 353.394 49.9395 421.473 121.457 470.381C192.998 519.305 291.555 549.404 400.174 549.404Z" fill="#FFE8C5" stroke="black" stroke-width="10"/>
<path d="M173.378 259.896C241.98 259.896 297.378 202.885 297.378 132.828C297.378 62.7708 241.98 5.75977 173.378 5.75977C104.775 5.75977 49.3776 62.7708 49.3776 132.828C49.3776 202.885 104.775 259.896 173.378 259.896Z" fill="white" stroke="black" stroke-width="10"/>
<path d="M173.378 259.896C241.98 259.896 297.378 202.885 297.378 132.828C297.378 62.7708 241.98 5.75977 173.378 5.75977C104.775 5.75977 49.3776 62.7708 49.3776 132.828C49.3776 202.885 104.775 259.896 173.378 259.896Z" fill="white" stroke="black" stroke-width="10"/>
<path d="M173.377 205.574C211.851 205.574 242.6 172.792 242.6 132.909C242.6 93.0268 211.851 60.2446 173.377 60.2446C134.903 60.2446 104.153 93.0268 104.153 132.909C104.153 172.792 134.903 205.574 173.377 205.574Z" fill="#D9D9D9" stroke="black" stroke-width="10"/>
<path d="M519.175 259.892C587.778 259.892 643.175 202.881 643.175 132.824C643.175 62.7668 587.778 5.75586 519.175 5.75586C450.573 5.75586 395.175 62.7668 395.175 132.824C395.175 202.881 450.573 259.892 519.175 259.892Z" fill="white" stroke="black" stroke-width="10"/>
<path d="M519.175 259.892C587.778 259.892 643.175 202.881 643.175 132.824C643.175 62.7668 587.778 5.75586 519.175 5.75586C450.573 5.75586 395.175 62.7668 395.175 132.824C395.175 202.881 450.573 259.892 519.175 259.892Z" fill="white" stroke="black" stroke-width="10"/>
<path d="M519.175 205.57C557.649 205.57 588.398 172.788 588.398 132.905C588.398 93.0229 557.649 60.2407 519.175 60.2407C480.701 60.2407 449.951 93.0229 449.951 132.905C449.951 172.788 480.701 205.57 519.175 205.57Z" fill="#D9D9D9" stroke="black" stroke-width="10"/>
<path d="M195.594 358.75C192.86 359.139 190.96 361.671 191.349 364.404L197.69 408.955C198.08 411.689 200.611 413.59 203.345 413.201C206.079 412.812 207.98 410.28 207.591 407.546L201.954 367.945L241.554 362.308C244.288 361.919 246.189 359.387 245.8 356.653C245.411 353.919 242.879 352.019 240.145 352.408L195.594 358.75ZM511.574 354.327C511.472 351.568 509.152 349.414 506.393 349.516L461.423 351.184C458.664 351.286 456.51 353.606 456.612 356.366C456.715 359.125 459.035 361.279 461.794 361.177L501.767 359.695L503.249 399.667C503.351 402.427 505.671 404.581 508.431 404.478C511.19 404.376 513.344 402.056 513.242 399.296L511.574 354.327ZM193.297 367.698C223.481 390.36 275.38 417.036 333.362 423.565C391.567 430.119 455.991 416.345 510.242 357.915L502.914 351.111C451.185 406.824 390.104 419.891 334.481 413.628C278.636 407.339 228.384 381.537 199.301 359.701L193.297 367.698Z" fill="black"/>
</svg>
