<svg width="806" height="575" viewBox="0 0 806 575" fill="none" xmlns="http://www.w3.org/2000/svg">
<path d="M402.927 569.883C512.338 569.883 611.604 538.624 683.649 487.83C755.68 437.045 800.854 366.417 800.854 287.854C800.854 209.292 755.68 138.664 683.649 87.8787C611.604 37.0842 512.338 5.8252 402.927 5.8252C293.515 5.8252 194.249 37.0842 122.204 87.8787C50.1732 138.664 5 209.292 5 287.854C5 366.417 50.1732 437.045 122.204 487.83C194.249 538.624 293.515 569.883 402.927 569.883Z" fill="#543300" stroke="black" stroke-width="10"/>
<path d="M174.529 269.301C243.736 269.301 299.369 210.054 299.369 137.565C299.369 65.0759 243.736 5.82812 174.529 5.82812C105.322 5.82812 49.6898 65.0759 49.6898 137.565C49.6898 210.054 105.322 269.301 174.529 269.301Z" fill="#543300" stroke="black" stroke-width="10"/>
<path d="M174.529 269.301C243.736 269.301 299.369 210.054 299.369 137.565C299.369 65.0759 243.736 5.82812 174.529 5.82812C105.322 5.82812 49.6898 65.0759 49.6898 137.565C49.6898 210.054 105.322 269.301 174.529 269.301Z" fill="white" stroke="black" stroke-width="10"/>
<path d="M174.53 212.898C213.392 212.898 244.206 178.809 244.206 137.646C244.206 96.4821 213.392 62.3931 174.53 62.3931C135.667 62.3931 104.853 96.4821 104.853 137.646C104.853 178.809 135.667 212.898 174.53 212.898Z" fill="#A0A0A0" stroke="black" stroke-width="10"/>
<path d="M522.769 269.298C591.976 269.298 647.608 210.051 647.608 137.562C647.608 65.073 591.976 5.8252 522.769 5.8252C453.562 5.8252 397.929 65.073 397.929 137.562C397.929 210.051 453.562 269.298 522.769 269.298Z" fill="white" stroke="black" stroke-width="10"/>
<path d="M522.769 269.298C591.976 269.298 647.608 210.051 647.608 137.562C647.608 65.073 591.976 5.8252 522.769 5.8252C453.562 5.8252 397.929 65.073 397.929 137.562C397.929 210.051 453.562 269.298 522.769 269.298Z" fill="white" stroke="black" stroke-width="10"/>
<path d="M522.768 212.891C561.631 212.891 592.445 178.802 592.445 137.639C592.445 96.4753 561.631 62.3862 522.768 62.3862C483.906 62.3862 453.092 96.4753 453.092 137.639C453.092 178.802 483.906 212.891 522.768 212.891Z" fill="#A0A0A0" stroke="black" stroke-width="10"/>
<path d="M196.981 372.31C194.241 372.659 192.304 375.163 192.653 377.902L198.339 422.541C198.687 425.281 201.191 427.219 203.93 426.87C206.669 426.521 208.607 424.017 208.258 421.278L203.204 381.599L242.884 376.544C245.623 376.195 247.561 373.692 247.212 370.953C246.863 368.213 244.359 366.276 241.62 366.624L196.981 372.31ZM515.074 367.471C514.93 364.713 512.577 362.595 509.82 362.739L464.881 365.089C462.123 365.234 460.005 367.586 460.149 370.344C460.293 373.101 462.646 375.22 465.403 375.076L505.349 372.986L507.438 412.932C507.582 415.689 509.935 417.808 512.692 417.664C515.45 417.519 517.569 415.167 517.424 412.409L515.074 367.471ZM194.552 381.224C224.942 404.747 277.214 432.451 335.63 439.233C394.293 446.044 459.184 431.718 513.796 371.078L506.365 364.386C454.25 422.255 392.75 435.797 336.783 429.3C280.568 422.774 229.97 395.993 200.673 373.316L194.552 381.224Z" fill="black"/>
</svg>
