<svg width="469" height="769" viewBox="0 0 469 769" fill="none" xmlns="http://www.w3.org/2000/svg">
<path d="M309.134 528.25C301.111 580.992 289.878 699.604 309.134 752.11" stroke="black" stroke-width="5"/>
<path d="M150.251 533.539C142.228 585.036 130.995 700.845 150.251 752.11" stroke="black" stroke-width="5"/>
<rect x="208.629" y="745.097" width="107.293" height="20.79" rx="10.395" fill="#D9D9D9" stroke="black" stroke-width="5"/>
<rect x="46.4863" y="737.241" width="107.293" height="20.79" rx="10.395" fill="#D9D9D9" stroke="black" stroke-width="5"/>
<path d="M224.548 551.388C125.633 551.388 96.3888 488.151 94.1309 456.532H367.311C360.938 488.151 323.462 551.388 224.548 551.388Z" fill="#D9D9D9" stroke="black" stroke-width="5"/>
<path d="M149.821 267.908C117.929 291.281 -88 301 50 202" stroke="black" stroke-width="5"/>
<path d="M367.483 455.5H94.7744C94.7744 360.682 117.042 239.441 224.291 241.09C331.539 242.739 367.483 288.499 367.483 455.5Z" fill="#D9D9D9" stroke="black" stroke-width="5"/>
<path d="M322.424 270.396C352.721 292.007 416.786 352.123 430.676 419.702" stroke="black" stroke-width="5"/>
<path d="M433.378 465.489C451.004 465.489 465.717 452.474 465.717 435.92C465.717 419.366 451.004 406.352 433.378 406.352C415.752 406.352 401.039 419.366 401.039 435.92C401.039 452.474 415.752 465.489 433.378 465.489Z" fill="#FFE7C4" stroke="black" stroke-width="5"/>
<path d="M233.422 268.153C296.852 268.153 354.399 253.538 396.177 229.78C437.881 206.064 464.344 172.916 464.344 135.755C464.344 98.5942 437.881 65.4463 396.177 41.73C354.399 17.9722 296.852 3.35693 233.422 3.35693C169.993 3.35693 112.445 17.9722 70.6675 41.73C28.963 65.4463 2.5 98.5942 2.5 135.755C2.5 172.916 28.963 206.064 70.6675 229.78C112.445 253.538 169.993 268.153 233.422 268.153Z" fill="#FFE7C4" stroke="black" stroke-width="5"/>
<path d="M100.648 127.214C140.117 127.214 172.815 99.8468 172.815 65.2878C172.815 30.7287 140.117 3.36133 100.648 3.36133C61.1783 3.36133 28.4805 30.7287 28.4805 65.2878C28.4805 99.8468 61.1783 127.214 100.648 127.214Z" fill="white" stroke="black" stroke-width="5"/>
<path d="M100.648 127.214C140.117 127.214 172.815 99.8468 172.815 65.2878C172.815 30.7287 140.117 3.36133 100.648 3.36133C61.1783 3.36133 28.4805 30.7287 28.4805 65.2878C28.4805 99.8468 61.1783 127.214 100.648 127.214Z" fill="white" stroke="black" stroke-width="5"/>
<path d="M100.647 100.765C122.472 100.765 140.746 85.198 140.746 65.324C140.746 45.4501 122.472 29.8828 100.647 29.8828C78.822 29.8828 60.5483 45.4501 60.5483 65.324C60.5483 85.198 78.822 100.765 100.647 100.765Z" fill="#2DB051" stroke="black" stroke-width="5"/>
<path d="M27.1032 64.7841L30.3467 68.2243L31.3356 63.7349C31.5072 63.5581 31.8347 63.249 32.42 62.7876C33.4873 61.9462 35.2641 60.7104 38.1827 58.945C44.0161 55.4163 54.24 49.8735 72.0875 41.2505C93.3205 30.9919 117.338 36.6415 136.469 45.2516C145.977 49.5311 154.132 54.4784 159.914 58.3604C162.802 60.2995 165.091 61.9682 166.652 63.1479C167.433 63.7376 168.031 64.2048 168.432 64.522C168.632 64.6805 168.782 64.8016 168.881 64.8818C168.931 64.9218 168.967 64.9516 168.991 64.9708L169.016 64.9915L169.021 64.9957L169.021 64.9959L169.022 64.9963L173.557 68.7462L173.107 62.8779C171.304 39.3738 159.71 24.5607 145.192 15.5323C130.792 6.57748 113.607 3.35231 100.399 2.62421C73.5526 1.14432 36.6581 17.9561 26.6405 61.8193C26.5037 62.1454 26.3993 62.5357 26.3989 62.9771C26.3987 63.3167 26.4609 63.6617 26.5951 63.9913C26.6609 64.1528 26.74 64.3008 26.8278 64.4348C26.8715 64.5015 26.9169 64.5639 26.9632 64.6222C26.9863 64.6513 27.0096 64.6794 27.033 64.7064C27.0447 64.7199 27.0564 64.7331 27.0681 64.746L27.0857 64.7653L27.0945 64.7747L27.0989 64.7794C27.101 64.7818 27.1032 64.7841 28.9223 63.0691L27.1032 64.7841Z" fill="#FFE7C4" stroke="black" stroke-width="5"/>
<path d="M303.089 127.21C342.558 127.21 375.256 99.8424 375.256 65.2834C375.256 30.7243 342.558 3.35693 303.089 3.35693C263.62 3.35693 230.922 30.7243 230.922 65.2834C230.922 99.8424 263.62 127.21 303.089 127.21Z" fill="white" stroke="black" stroke-width="5"/>
<path d="M303.089 127.21C342.558 127.21 375.256 99.8424 375.256 65.2834C375.256 30.7243 342.558 3.35693 303.089 3.35693C263.62 3.35693 230.922 30.7243 230.922 65.2834C230.922 99.8424 263.62 127.21 303.089 127.21Z" fill="white" stroke="black" stroke-width="5"/>
<path d="M303.089 100.761C324.914 100.761 343.188 85.1941 343.188 65.3201C343.188 45.4461 324.914 29.8789 303.089 29.8789C281.264 29.8789 262.99 45.4461 262.99 65.3201C262.99 85.1941 281.264 100.761 303.089 100.761Z" fill="#2DB051" stroke="black" stroke-width="5"/>
<path d="M119.059 186.538C119.357 187.886 120.691 188.738 122.04 188.44L144.009 183.583C145.357 183.285 146.209 181.951 145.911 180.603C145.613 179.254 144.278 178.403 142.93 178.701L123.401 183.018L119.085 163.489C118.787 162.141 117.452 161.29 116.104 161.588C114.756 161.886 113.904 163.22 114.202 164.569L119.059 186.538ZM275.472 188.303C276.744 187.766 277.34 186.299 276.803 185.027L268.051 164.299C267.514 163.027 266.048 162.431 264.776 162.968C263.504 163.505 262.908 164.972 263.445 166.244L271.224 184.669L252.799 192.448C251.528 192.985 250.932 194.452 251.469 195.724C252.006 196.996 253.472 197.592 254.744 197.055L275.472 188.303ZM123.608 187.343C132.802 172.93 140.766 163.595 148.91 158.121C156.932 152.729 165.292 150.977 175.602 152.109C186.047 153.257 198.427 157.357 214.371 163.713C230.4 170.102 249.38 178.493 273.559 188.316L275.441 183.683C251.62 174.006 232.1 165.397 216.223 159.068C200.26 152.705 187.328 148.367 176.148 147.139C164.833 145.896 155.256 147.831 146.121 153.971C137.109 160.028 128.698 170.067 119.392 184.654L123.608 187.343Z" fill="black"/>
<path d="M54.8389 221.637C72.4644 221.637 87.1779 208.623 87.1779 192.069C87.1779 175.515 72.4644 162.5 54.8389 162.5C37.2134 162.5 22.5 175.515 22.5 192.069C22.5 208.623 37.2134 221.637 54.8389 221.637Z" fill="#FFE7C4" stroke="black" stroke-width="5"/>
</svg>
