<svg width="496" height="827" viewBox="0 0 496 827" fill="none" xmlns="http://www.w3.org/2000/svg">
<ellipse cx="322.197" cy="441.181" rx="62" ry="51" transform="rotate(-32.9138 322.197 441.181)" fill="white"/>
<ellipse cx="252.761" cy="448.006" rx="62" ry="51" transform="rotate(-32.9138 252.761 448.006)" fill="white"/>
<ellipse cx="277.096" cy="371.503" rx="62" ry="51" transform="rotate(-32.9138 277.096 371.503)" fill="white"/>
<path d="M289 441C352.166 445.833 480.8 484 490 598C501.5 740.5 188 624.5 225.5 749.5" stroke="white" stroke-width="10"/>
<path d="M-30.0516 388.597C-53.9515 447.267 -77.2821 579.399 20.5946 638.567C142.94 712.527 179.241 380.231 274.313 469.631" stroke="white" stroke-width="10"/>
<path d="M309.309 422.5C246.142 417.667 117.509 379.5 108.309 265.5C96.8088 123 410.309 239 372.809 114" stroke="white" stroke-width="10"/>
<path d="M257.5 724C251.622 764.943 219.166 809.333 203.5 820C144.3 760.8 185.833 711.333 203.5 704C215.833 697.333 262.44 689.582 257.5 724Z" fill="white" stroke="white" stroke-width="10"/>
<path d="M428.693 30.7693C422.816 71.7122 390.36 116.103 374.693 126.769C315.493 67.5693 357.026 18.1027 374.693 10.7693C387.026 4.10265 433.633 -3.64801 428.693 30.7693Z" fill="white" stroke="white" stroke-width="10"/>
<ellipse cx="27.95" cy="28.3696" rx="27.95" ry="28.3696" transform="matrix(-0.839489 -0.543377 -0.543377 0.839489 323.758 410.375)" fill="#65C0F8"/>
<ellipse cx="18.9527" cy="20.4944" rx="18.9527" ry="20.4944" transform="matrix(-0.839489 -0.543377 -0.543377 0.839489 312.093 413.597)" fill="white"/>
</svg>
