<svg width="256" height="208" viewBox="0 0 256 208" fill="none" xmlns="http://www.w3.org/2000/svg">
<path d="M83.1869 32.677C78.8583 31.7506 71.3374 27.1182 75.8824 16.0007C84.3231 7.10666 93.4672 12.2949 96.9842 16.0007L83.1869 32.677Z" fill="#E3C83C" stroke="black" stroke-width="3"/>
<path d="M156.795 25.4073C153.628 21.8907 150.187 11.8031 160.892 7.45847C172.227 5.28617 175.143 14.9168 176.301 20.238L156.795 25.4073Z" fill="#E3C83C" stroke="black" stroke-width="3"/>
<path d="M17.1468 181.82C18.9041 181.251 27.7762 169.732 49.2061 128.211L36.5726 124.136C42.8441 140.142 20.1005 164.442 7.94479 174.591L17.1468 181.82Z" fill="#E3C83C" stroke="black" stroke-width="3"/>
<path d="M238.277 175.235C236.52 174.666 227.648 163.147 206.218 121.626L218.852 117.551C212.58 133.557 235.324 157.857 247.48 168.006L238.277 175.235Z" fill="#E3C83C" stroke="black" stroke-width="3"/>
<path d="M42.4523 181.88C41.5609 180.485 42.5415 168.865 53.5955 133.549L65.1845 139.257C50.5646 143.824 51.3669 170.844 53.5955 183.783L42.4523 181.88Z" fill="#E3C83C" stroke="black" stroke-width="3"/>
<path d="M216.101 181.88C216.993 180.485 216.012 168.865 204.958 133.549L193.369 139.257C207.989 143.824 207.187 170.844 204.958 183.783L216.101 181.88Z" fill="#E3C83C" stroke="black" stroke-width="3"/>
<path d="M62.2955 203.32C61.3766 201.384 62.3874 185.263 73.7822 136.266L85.7284 144.185C70.6579 150.521 71.4849 188.008 73.7822 205.96L62.2955 203.32Z" fill="#E3C83C" stroke="black" stroke-width="3"/>
<path d="M193.148 203.32C194.067 201.384 193.056 185.263 181.662 136.266L169.715 144.185C184.786 150.521 183.959 188.008 181.662 205.96L193.148 203.32Z" fill="#E3C83C" stroke="black" stroke-width="3"/>
<path d="M195.128 38.7443C199.241 36.9372 201.339 32.3994 195.128 22.404C185.434 15.402 181.826 20.8225 178.946 25.1957L195.128 38.7443Z" fill="#E3C83C" stroke="black" stroke-width="3"/>
<path d="M129.414 164.92C158.646 164.92 185.172 156.381 204.428 142.501C223.682 128.622 235.76 109.317 235.76 87.8424C235.76 66.3681 223.682 47.0631 204.428 33.184C185.172 19.3035 158.646 10.7646 129.414 10.7646C100.182 10.7646 73.6551 19.3035 54.399 33.184C35.1451 47.0631 23.0674 66.3681 23.0674 87.8424C23.0674 109.317 35.1451 128.622 54.399 142.501C73.6551 156.381 100.182 164.92 129.414 164.92Z" fill="#543300" stroke="black" stroke-width="3"/>
<path d="M68.47 82.9199C87.0672 82.9199 101.947 66.6558 101.947 46.8442C101.947 27.0327 87.0672 10.7686 68.47 10.7686C49.8728 10.7686 34.9927 27.0327 34.9927 46.8442C34.9927 66.6558 49.8728 82.9199 68.47 82.9199Z" fill="white" stroke="black" stroke-width="3"/>
<path d="M68.47 82.9199C87.0672 82.9199 101.947 66.6558 101.947 46.8442C101.947 27.0327 87.0672 10.7686 68.47 10.7686C49.8728 10.7686 34.9927 27.0327 34.9927 46.8442C34.9927 66.6558 49.8728 82.9199 68.47 82.9199Z" fill="white" stroke="black" stroke-width="3"/>
<path d="M68.4698 67.5321C78.9736 67.5321 87.2278 58.1278 87.2278 46.8662C87.2278 35.6045 78.9736 26.2002 68.4698 26.2002C57.966 26.2002 49.7119 35.6045 49.7119 46.8662C49.7119 58.1278 57.966 67.5321 68.4698 67.5321Z" fill="#1480FF" stroke="black" stroke-width="3"/>
<path d="M161.391 82.9209C179.989 82.9209 194.869 66.6568 194.869 46.8452C194.869 27.0337 179.989 10.7695 161.391 10.7695C142.794 10.7695 127.914 27.0337 127.914 46.8452C127.914 66.6568 142.794 82.9209 161.391 82.9209Z" fill="white" stroke="black" stroke-width="3"/>
<path d="M161.391 82.9209C179.989 82.9209 194.869 66.6568 194.869 46.8452C194.869 27.0337 179.989 10.7695 161.391 10.7695C142.794 10.7695 127.914 27.0337 127.914 46.8452C127.914 66.6568 142.794 82.9209 161.391 82.9209Z" fill="white" stroke="black" stroke-width="3"/>
<path d="M161.392 67.5351C171.896 67.5351 180.15 58.1308 180.15 46.8691C180.15 35.6074 171.896 26.2031 161.392 26.2031C150.888 26.2031 142.634 35.6074 142.634 46.8691C142.634 58.1308 150.888 67.5351 161.392 67.5351Z" fill="#1480FF" stroke="black" stroke-width="3"/>
<path d="M74.4554 110.749C73.6325 110.844 73.0431 111.589 73.139 112.412L74.7006 125.821C74.7964 126.644 75.5412 127.234 76.364 127.138C77.1869 127.042 77.7763 126.297 77.6804 125.474L76.2923 113.555L88.2118 112.167C89.0347 112.071 89.624 111.326 89.5282 110.503C89.4324 109.68 88.6876 109.091 87.8648 109.187L74.4554 110.749ZM159.503 109.541C159.451 108.715 158.738 108.087 157.911 108.139L144.438 108.993C143.612 109.045 142.984 109.758 143.036 110.585C143.089 111.411 143.801 112.039 144.628 111.987L156.604 111.228L157.363 123.204C157.415 124.031 158.128 124.659 158.955 124.606C159.781 124.554 160.409 123.841 160.357 123.014L159.503 109.541ZM73.6981 113.415C81.8242 119.846 95.8027 127.422 111.434 129.277C127.145 131.142 144.521 127.215 159.132 110.628L156.881 108.645C143.012 124.389 126.663 128.064 111.787 126.298C96.8309 124.523 83.36 117.235 75.5598 111.062L73.6981 113.415Z" fill="black"/>
<path d="M102.961 25.1888C98.895 23.2463 92.3776 16.915 98.8359 7.12915C108.702 0.450739 116.706 7.71439 119.475 12.181L102.961 25.1888Z" fill="#E3C83C" stroke="black" stroke-width="3"/>
<path d="M128.72 23.6134C124.863 21.1555 118.992 14.0242 126.37 5.16278C136.836 -0.171351 144.096 8.07892 146.417 12.8708L128.72 23.6134Z" fill="#E3C83C" stroke="black" stroke-width="3"/>
</svg>
