<svg width="274" height="288" viewBox="0 0 274 288" fill="none" xmlns="http://www.w3.org/2000/svg">
<g filter="url(#filter0_d_36_2286)">
<path d="M57.7995 136.724C57.6968 134.995 57.4486 133.306 57.0676 131.672C66.855 127.556 73.7141 117.289 73.7141 105.415C73.7141 89.9646 62.1024 77.2363 47.5374 77.2363C32.9724 77.2363 21.3608 89.9646 21.3608 105.415C21.3608 107.781 21.633 110.083 22.1465 112.285C12.3591 116.401 5.5 126.668 5.5 138.542C5.5 148.223 10.0587 156.835 17.0462 161.917C10.0587 166.999 5.5 175.611 5.5 185.292C5.5 200.742 17.1117 213.47 31.6767 213.47C33.6854 213.47 35.6379 213.228 37.5115 212.77C38.38 227.388 49.6449 239.131 63.6343 239.131C66.3266 239.131 68.918 238.696 71.3537 237.889C73.9725 250.398 84.3341 259.858 96.8908 259.858C102.207 259.858 107.13 258.162 111.238 255.257C113.68 268.017 124.151 277.734 136.877 277.734C147.746 277.734 156.971 270.646 160.952 260.628C164.435 262.48 168.364 263.524 172.534 263.524C186.912 263.524 198.412 251.121 198.705 235.94C202.156 237.75 206.04 238.769 210.159 238.769C224.149 238.769 235.414 227.026 236.282 212.408C238.156 212.866 240.108 213.108 242.117 213.108C256.682 213.108 268.294 200.38 268.294 184.93C268.294 175.249 263.735 166.637 256.748 161.555C263.735 156.473 268.294 147.861 268.294 138.18C268.294 125.915 260.976 115.364 250.671 111.536C252.009 108.147 252.748 104.423 252.748 100.527C252.748 85.0769 241.136 72.3486 226.571 72.3486C212.006 72.3486 200.395 85.0769 200.395 100.527C200.395 112.793 207.713 123.343 218.017 127.171C216.889 130.029 216.187 133.125 215.994 136.362C214.121 135.904 212.168 135.662 210.159 135.662C195.594 135.662 183.983 148.39 183.983 163.84C183.983 164.882 184.036 165.912 184.139 166.926C183.312 166.841 182.474 166.798 181.626 166.798C173.015 166.798 165.436 171.247 160.678 178.078C159.461 177.892 158.216 177.795 156.949 177.795C149.419 177.795 142.678 181.198 137.923 186.619C133.953 181.64 128.389 178.161 122.047 177.122C118.913 165.415 108.907 156.751 96.8908 156.751C94.1985 156.751 91.6072 157.186 89.1714 157.993C86.5526 145.484 76.191 136.024 63.6343 136.024C61.6256 136.024 59.6731 136.266 57.7995 136.724Z" fill="#F3EFD2" stroke="black" stroke-width="3"/>
<path d="M137.94 198.091C167.172 198.091 193.699 189.552 212.955 175.672C232.209 161.793 244.286 142.488 244.286 121.013C244.286 99.539 232.209 80.234 212.955 66.3549C193.699 52.4744 167.172 43.9355 137.94 43.9355C108.708 43.9355 82.1814 52.4744 62.9254 66.3549C43.6715 80.234 31.5938 99.539 31.5938 121.013C31.5938 142.488 43.6715 161.793 62.9254 175.672C82.1814 189.552 108.708 198.091 137.94 198.091Z" fill="#FFE8C5" stroke="black" stroke-width="3"/>
<path d="M76.9964 116.084C95.5936 116.084 110.474 99.8203 110.474 80.0088C110.474 60.1972 95.5936 43.9331 76.9964 43.9331C58.3992 43.9331 43.519 60.1972 43.519 80.0088C43.519 99.8203 58.3992 116.084 76.9964 116.084Z" fill="white" stroke="black" stroke-width="3"/>
<path d="M76.9964 116.084C95.5936 116.084 110.474 99.8203 110.474 80.0088C110.474 60.1972 95.5936 43.9331 76.9964 43.9331C58.3992 43.9331 43.519 60.1972 43.519 80.0088C43.519 99.8203 58.3992 116.084 76.9964 116.084Z" fill="white" stroke="black" stroke-width="3"/>
<path d="M76.9962 100.697C87.5 100.697 95.7541 91.2924 95.7541 80.0307C95.7541 68.7691 87.5 59.3647 76.9962 59.3647C66.4924 59.3647 58.2383 68.7691 58.2383 80.0307C58.2383 91.2924 66.4924 100.697 76.9962 100.697Z" fill="#1480FF" stroke="black" stroke-width="3"/>
<path d="M169.917 116.087C188.515 116.087 203.395 99.8233 203.395 80.0117C203.395 60.2002 188.515 43.936 169.917 43.936C151.32 43.936 136.44 60.2002 136.44 80.0117C136.44 99.8233 151.32 116.087 169.917 116.087Z" fill="white" stroke="black" stroke-width="3"/>
<path d="M169.917 116.087C188.515 116.087 203.395 99.8233 203.395 80.0117C203.395 60.2002 188.515 43.936 169.917 43.936C151.32 43.936 136.44 60.2002 136.44 80.0117C136.44 99.8233 151.32 116.087 169.917 116.087Z" fill="white" stroke="black" stroke-width="3"/>
<path d="M169.917 100.7C180.42 100.7 188.675 91.2953 188.675 80.0336C188.675 68.772 180.42 59.3677 169.917 59.3677C159.413 59.3677 151.159 68.772 151.159 80.0336C151.159 91.2953 159.413 100.7 169.917 100.7Z" fill="#1480FF" stroke="black" stroke-width="3"/>
<path d="M82.9822 143.913C82.1594 144.009 81.57 144.754 81.6658 145.577L83.2274 158.986C83.3233 159.809 84.068 160.398 84.8909 160.302C85.7137 160.206 86.3031 159.462 86.2073 158.639L84.8192 146.719L96.7387 145.331C97.5615 145.236 98.1509 144.491 98.0551 143.668C97.9592 142.845 97.2145 142.256 96.3916 142.351L82.9822 143.913ZM168.03 142.706C167.978 141.879 167.265 141.251 166.438 141.304L152.965 142.157C152.138 142.21 151.511 142.922 151.563 143.749C151.615 144.576 152.328 145.204 153.155 145.151L165.131 144.393L165.89 156.369C165.942 157.195 166.655 157.823 167.481 157.771C168.308 157.718 168.936 157.006 168.884 156.179L168.03 142.706ZM82.2249 146.579C90.351 153.01 104.33 160.587 119.961 162.442C135.672 164.307 153.048 160.379 167.659 143.792L165.407 141.809C151.539 157.553 135.19 161.229 120.314 159.463C105.358 157.688 91.8869 150.4 84.0866 144.227L82.2249 146.579Z" fill="black"/>
<path d="M26.2383 47.9477C25.9354 63.3942 37.2948 76.4201 51.8558 76.7976C63.5637 77.1012 73.5243 69.1286 77.1357 57.963C80.4652 59.7482 84.207 60.7969 88.1881 60.9001C96.9624 61.1276 104.755 56.7068 109.63 49.7772C114.246 54.9505 120.687 58.2571 127.918 58.4446C136.734 58.6732 144.559 54.2094 149.429 47.2234C153.585 56.3655 162.204 62.8192 172.39 63.0833C177.539 63.2168 182.35 61.7497 186.431 59.1143C189.079 71.2952 199.084 80.615 211.367 80.9335C225.928 81.311 237.787 68.8872 238.09 53.4406C238.393 37.994 227.033 24.9682 212.472 24.5907C207.323 24.4572 202.513 25.9243 198.431 28.5596C195.784 16.3788 185.779 7.05897 173.495 6.74047C164.679 6.5119 156.854 10.9757 151.984 17.9617C147.828 8.81959 139.209 2.36589 129.023 2.10178C120.248 1.87428 112.455 6.29514 107.581 13.2247C102.965 8.0514 96.5239 4.74475 89.2929 4.55726C77.585 4.2537 67.6244 12.2263 64.0131 23.3919C60.6835 21.6067 56.9417 20.558 52.9606 20.4548C38.3996 20.0772 26.5412 32.5011 26.2383 47.9477Z" fill="#F3EFD2" stroke="black" stroke-width="3"/>
</g>
<defs>
<filter id="filter0_d_36_2286" x="0" y="0.593262" width="273.794" height="286.641" filterUnits="userSpaceOnUse" color-interpolation-filters="sRGB">
<feFlood flood-opacity="0" result="BackgroundImageFix"/>
<feColorMatrix in="SourceAlpha" type="matrix" values="0 0 0 0 0 0 0 0 0 0 0 0 0 0 0 0 0 0 127 0" result="hardAlpha"/>
<feOffset dy="4"/>
<feGaussianBlur stdDeviation="2"/>
<feComposite in2="hardAlpha" operator="out"/>
<feColorMatrix type="matrix" values="0 0 0 0 0 0 0 0 0 0 0 0 0 0 0 0 0 0 0.25 0"/>
<feBlend mode="normal" in2="BackgroundImageFix" result="effect1_dropShadow_36_2286"/>
<feBlend mode="normal" in="SourceGraphic" in2="effect1_dropShadow_36_2286" result="shape"/>
</filter>
</defs>
</svg>
