<svg width="224" height="287" viewBox="0 0 224 287" fill="none" xmlns="http://www.w3.org/2000/svg">
<g filter="url(#filter0_d_36_2289)">
<path d="M14.5952 265.182L22.7814 245.632L29.0785 247.442L39.7835 265.182L29.0785 258.304L26.5597 269.527L22.7814 258.304L14.5952 265.182Z" fill="#F3EFD2" stroke="black" stroke-width="3"/>
<path d="M207.719 268.531L199.533 248.98L193.235 250.79L182.53 268.531L193.235 261.652L195.754 272.875L199.533 261.652L207.719 268.531Z" fill="#F3EFD2" stroke="black" stroke-width="3"/>
<ellipse cx="197.014" cy="149.417" rx="6.4545" ry="14.844" fill="#D9D9D9"/>
<ellipse cx="197.014" cy="179.106" rx="6.4545" ry="14.844" fill="#D9D9D9"/>
<ellipse cx="197.014" cy="208.795" rx="6.4545" ry="14.844" fill="#D9D9D9"/>
<ellipse cx="197.014" cy="238.485" rx="6.4545" ry="14.844" fill="#D9D9D9"/>
<path d="M197.014 165.761C198.404 165.761 199.609 165.106 200.572 164.169C201.528 163.24 202.32 161.967 202.953 160.511C204.221 157.595 204.968 153.672 204.968 149.417C204.968 145.162 204.221 141.238 202.953 138.322C202.32 136.867 201.528 135.594 200.572 134.664C199.609 133.727 198.404 133.073 197.014 133.073C195.623 133.073 194.418 133.727 193.455 134.664C192.499 135.594 191.707 136.867 191.074 138.322C189.806 141.238 189.059 145.162 189.059 149.417C189.059 153.672 189.806 157.595 191.074 160.511C191.707 161.967 192.499 163.24 193.455 164.169C194.418 165.106 195.623 165.761 197.014 165.761Z" fill="#F3EFD2" stroke="black" stroke-width="3"/>
<path d="M197.014 195.45C198.404 195.45 199.609 194.796 200.572 193.859C201.528 192.929 202.32 191.656 202.953 190.201C204.221 187.285 204.968 183.361 204.968 179.106C204.968 174.851 204.221 170.928 202.953 168.012C202.32 166.556 201.528 165.283 200.572 164.354C199.609 163.417 198.404 162.762 197.014 162.762C195.623 162.762 194.418 163.417 193.455 164.354C192.499 165.283 191.707 166.556 191.074 168.012C189.806 170.928 189.059 174.851 189.059 179.106C189.059 183.361 189.806 187.285 191.074 190.201C191.707 191.656 192.499 192.929 193.455 193.859C194.418 194.796 195.623 195.45 197.014 195.45Z" fill="#F3EFD2" stroke="black" stroke-width="3"/>
<path d="M197.014 225.139C198.404 225.139 199.609 224.485 200.572 223.548C201.528 222.618 202.32 221.345 202.953 219.89C204.221 216.974 204.968 213.05 204.968 208.795C204.968 204.54 204.221 200.617 202.953 197.701C202.32 196.245 201.528 194.972 200.572 194.042C199.609 193.106 198.404 192.451 197.014 192.451C195.623 192.451 194.418 193.106 193.455 194.042C192.499 194.972 191.707 196.245 191.074 197.701C189.806 200.617 189.059 204.54 189.059 208.795C189.059 213.05 189.806 216.974 191.074 219.89C191.707 221.345 192.499 222.618 193.455 223.548C194.418 224.485 195.623 225.139 197.014 225.139Z" fill="#F3EFD2" stroke="black" stroke-width="3"/>
<path d="M197.014 254.829C198.404 254.829 199.609 254.174 200.572 253.237C201.528 252.307 202.32 251.035 202.953 249.579C204.221 246.663 204.968 242.739 204.968 238.485C204.968 234.23 204.221 230.306 202.953 227.39C202.32 225.935 201.528 224.662 200.572 223.732C199.609 222.795 198.404 222.141 197.014 222.141C195.623 222.141 194.418 222.795 193.455 223.732C192.499 224.662 191.707 225.935 191.074 227.39C189.806 230.306 189.059 234.23 189.059 238.485C189.059 242.739 189.806 246.663 191.074 249.579C191.707 251.035 192.499 252.307 193.455 253.237C194.418 254.174 195.623 254.829 197.014 254.829Z" fill="#F3EFD2" stroke="black" stroke-width="3"/>
<ellipse cx="27.1903" cy="145.074" rx="6.4545" ry="14.844" fill="#D9D9D9"/>
<ellipse cx="27.1903" cy="174.762" rx="6.4545" ry="14.844" fill="#D9D9D9"/>
<ellipse cx="27.1903" cy="204.451" rx="6.4545" ry="14.844" fill="#D9D9D9"/>
<ellipse cx="27.1903" cy="234.141" rx="6.4545" ry="14.844" fill="#D9D9D9"/>
<path d="M27.1903 161.418C28.5811 161.418 29.7856 160.763 30.7486 159.826C31.7047 158.896 32.497 157.624 33.13 156.168C34.3979 153.252 35.1448 149.328 35.1448 145.074C35.1448 140.819 34.3979 136.895 33.13 133.979C32.497 132.523 31.7047 131.251 30.7486 130.321C29.7856 129.384 28.5811 128.729 27.1903 128.729C25.7996 128.729 24.5951 129.384 23.6321 130.321C22.676 131.251 21.8837 132.523 21.2507 133.979C19.9828 136.895 19.2358 140.819 19.2358 145.074C19.2358 149.328 19.9828 153.252 21.2507 156.168C21.8837 157.624 22.676 158.896 23.6321 159.826C24.5951 160.763 25.7996 161.418 27.1903 161.418Z" fill="#F3EFD2" stroke="black" stroke-width="3"/>
<path d="M27.1903 191.106C28.5811 191.106 29.7856 190.452 30.7486 189.515C31.7047 188.585 32.497 187.313 33.13 185.857C34.3979 182.941 35.1448 179.017 35.1448 174.762C35.1448 170.508 34.3979 166.584 33.13 163.668C32.497 162.212 31.7047 160.94 30.7486 160.01C29.7856 159.073 28.5811 158.418 27.1903 158.418C25.7996 158.418 24.5951 159.073 23.6321 160.01C22.676 160.94 21.8837 162.212 21.2507 163.668C19.9828 166.584 19.2358 170.508 19.2358 174.762C19.2358 179.017 19.9828 182.941 21.2507 185.857C21.8837 187.313 22.676 188.585 23.6321 189.515C24.5951 190.452 25.7996 191.106 27.1903 191.106Z" fill="#F3EFD2" stroke="black" stroke-width="3"/>
<path d="M27.1903 220.795C28.5811 220.795 29.7856 220.141 30.7486 219.204C31.7047 218.274 32.497 217.002 33.13 215.546C34.3979 212.63 35.1448 208.706 35.1448 204.451C35.1448 200.197 34.3979 196.273 33.13 193.357C32.497 191.901 31.7047 190.629 30.7486 189.699C29.7856 188.762 28.5811 188.107 27.1903 188.107C25.7996 188.107 24.5951 188.762 23.6321 189.699C22.676 190.629 21.8837 191.901 21.2507 193.357C19.9828 196.273 19.2358 200.197 19.2358 204.451C19.2358 208.706 19.9828 212.63 21.2507 215.546C21.8837 217.002 22.676 218.274 23.6321 219.204C24.5951 220.141 25.7996 220.795 27.1903 220.795Z" fill="#F3EFD2" stroke="black" stroke-width="3"/>
<path d="M27.1903 250.485C28.5811 250.485 29.7856 249.83 30.7486 248.894C31.7047 247.964 32.497 246.691 33.13 245.235C34.3979 242.319 35.1448 238.396 35.1448 234.141C35.1448 229.886 34.3979 225.962 33.13 223.046C32.497 221.591 31.7047 220.318 30.7486 219.388C29.7856 218.451 28.5811 217.797 27.1903 217.797C25.7996 217.797 24.5951 218.451 23.6321 219.388C22.676 220.318 21.8837 221.591 21.2507 223.046C19.9828 225.962 19.2358 229.886 19.2358 234.141C19.2358 238.396 19.9828 242.319 21.2507 245.235C21.8837 246.691 22.676 247.964 23.6321 248.894C24.5951 249.83 25.7996 250.485 27.1903 250.485Z" fill="#F3EFD2" stroke="black" stroke-width="3"/>
<path d="M69.018 3.84743L67.7998 5.6153L69.8982 6.1663L76.2128 7.82437L78.2241 9.069C76.1038 8.40878 74.1301 7.88296 72.6248 7.6548C71.8511 7.53753 71.0619 7.47548 70.4051 7.58424C70.0761 7.6387 69.6448 7.75664 69.263 8.05013C68.8258 8.38615 68.538 8.89178 68.507 9.49104C68.4337 10.9098 69.4986 11.9137 70.2876 12.4909C70.9079 12.9447 71.6646 13.3586 72.4726 13.7316C72.3655 13.7406 72.2593 13.7499 72.1541 13.7595C70.7458 13.8868 69.4256 14.0594 68.5075 14.305C68.1054 14.4126 67.5269 14.5947 67.1018 14.9579C66.868 15.1577 66.504 15.5654 66.4675 16.1996C66.4302 16.8491 66.7586 17.3186 66.9982 17.5672C67.3151 17.896 67.7173 18.145 68.0724 18.333C68.4487 18.5322 68.8809 18.7186 69.3356 18.8923C70.2458 19.2401 71.3443 19.5738 72.4724 19.8777C74.7334 20.4867 77.2334 21.0077 78.8498 21.3027L78.9083 21.3134L78.9673 21.3194L111.131 24.6L127.898 29.8803L129.116 30.2638L129.673 29.1287L133.375 21.5838L134.238 19.8247L132.302 19.4322L114.471 15.8168C114.294 14.8285 113.999 13.6465 113.553 12.5175C112.954 10.9983 111.923 9.15936 110.162 8.38521C109.782 8.21806 109.214 8.0267 108.605 8.14259C108.265 8.20733 107.927 8.36629 107.651 8.64126C107.384 8.90739 107.241 9.21493 107.166 9.47949C107.029 9.96655 107.083 10.4529 107.144 10.7877C107.212 11.1569 107.328 11.542 107.461 11.9118C107.721 12.6343 108.101 13.4525 108.508 14.2427L99.1524 14.5672C89.8435 7.41953 83.0933 3.95755 78.3605 2.60139C75.9548 1.91206 74.0005 1.74657 72.466 1.97265C70.9394 2.19755 69.7161 2.83429 69.018 3.84743Z" fill="#F3EFD2" stroke="black" stroke-width="3"/>
<path d="M111.846 171.283C141.078 171.283 167.605 162.745 186.861 148.864C206.115 134.985 218.193 115.68 218.193 94.2057C218.193 72.7314 206.115 53.4264 186.861 39.5473C167.605 25.6667 141.078 17.1279 111.846 17.1279C82.6142 17.1279 56.0877 25.6667 36.8316 39.5473C17.5778 53.4264 5.5 72.7314 5.5 94.2057C5.5 115.68 17.5778 134.985 36.8316 148.864C56.0877 162.745 82.6142 171.283 111.846 171.283Z" fill="#FFE8C5" stroke="black" stroke-width="3"/>
<path d="M50.9022 89.2832C69.4994 89.2832 84.3795 73.0191 84.3795 53.2075C84.3795 33.396 69.4994 17.1318 50.9022 17.1318C32.3049 17.1318 17.4248 33.396 17.4248 53.2075C17.4248 73.0191 32.3049 89.2832 50.9022 89.2832Z" fill="white" stroke="black" stroke-width="3"/>
<path d="M50.9022 89.2832C69.4994 89.2832 84.3795 73.0191 84.3795 53.2075C84.3795 33.396 69.4994 17.1318 50.9022 17.1318C32.3049 17.1318 17.4248 33.396 17.4248 53.2075C17.4248 73.0191 32.3049 89.2832 50.9022 89.2832Z" fill="white" stroke="black" stroke-width="3"/>
<path d="M50.9025 73.8954C61.4063 73.8954 69.6604 64.4911 69.6604 53.2294C69.6604 41.9678 61.4063 32.5635 50.9025 32.5635C40.3987 32.5635 32.1445 41.9678 32.1445 53.2294C32.1445 64.4911 40.3987 73.8954 50.9025 73.8954Z" fill="#1480FF" stroke="black" stroke-width="3"/>
<path d="M143.823 89.2861C162.42 89.2861 177.3 73.022 177.3 53.2104C177.3 33.3989 162.42 17.1348 143.823 17.1348C125.226 17.1348 110.346 33.3989 110.346 53.2104C110.346 73.022 125.226 89.2861 143.823 89.2861Z" fill="white" stroke="black" stroke-width="3"/>
<path d="M143.823 89.2861C162.42 89.2861 177.3 73.022 177.3 53.2104C177.3 33.3989 162.42 17.1348 143.823 17.1348C125.226 17.1348 110.346 33.3989 110.346 53.2104C110.346 73.022 125.226 89.2861 143.823 89.2861Z" fill="white" stroke="black" stroke-width="3"/>
<path d="M143.823 73.8983C154.327 73.8983 162.581 64.494 162.581 53.2324C162.581 41.9707 154.327 32.5664 143.823 32.5664C133.32 32.5664 125.065 41.9707 125.065 53.2324C125.065 64.494 133.32 73.8983 143.823 73.8983Z" fill="#1480FF" stroke="black" stroke-width="3"/>
<path d="M56.888 117.11C56.0651 117.206 55.4758 117.95 55.5716 118.773L57.1332 132.183C57.229 133.006 57.9738 133.595 58.7966 133.499C59.6195 133.403 60.2089 132.659 60.1131 131.836L58.725 119.916L70.6444 118.528C71.4673 118.432 72.0567 117.688 71.9608 116.865C71.865 116.042 71.1203 115.452 70.2974 115.548L56.888 117.11ZM141.936 115.903C141.883 115.076 141.171 114.448 140.344 114.501L126.871 115.354C126.044 115.406 125.416 116.119 125.469 116.946C125.521 117.773 126.234 118.4 127.061 118.348L139.037 117.589L139.795 129.565C139.848 130.392 140.56 131.02 141.387 130.968C142.214 130.915 142.842 130.202 142.789 129.376L141.936 115.903ZM56.1307 119.776C64.2568 126.207 78.2353 133.783 93.8663 135.639C109.577 137.504 126.954 133.576 141.564 116.989L139.313 115.006C125.445 130.75 109.096 134.425 94.2199 132.66C79.2635 130.884 65.7926 123.597 57.9924 117.424L56.1307 119.776Z" fill="black"/>
</g>
<defs>
<filter id="filter0_d_36_2289" x="0" y="0.375977" width="223.693" height="286.06" filterUnits="userSpaceOnUse" color-interpolation-filters="sRGB">
<feFlood flood-opacity="0" result="BackgroundImageFix"/>
<feColorMatrix in="SourceAlpha" type="matrix" values="0 0 0 0 0 0 0 0 0 0 0 0 0 0 0 0 0 0 127 0" result="hardAlpha"/>
<feOffset dy="4"/>
<feGaussianBlur stdDeviation="2"/>
<feComposite in2="hardAlpha" operator="out"/>
<feColorMatrix type="matrix" values="0 0 0 0 0 0 0 0 0 0 0 0 0 0 0 0 0 0 0.25 0"/>
<feBlend mode="normal" in2="BackgroundImageFix" result="effect1_dropShadow_36_2289"/>
<feBlend mode="normal" in="SourceGraphic" in2="effect1_dropShadow_36_2289" result="shape"/>
</filter>
</defs>
</svg>
