<svg width="282" height="216" viewBox="0 0 282 216" fill="none" xmlns="http://www.w3.org/2000/svg">
<g filter="url(#filter0_d_36_2287)">
<path d="M227.01 151.026H227.106L227.201 151.014L272.5 145.2C275.127 144.863 275.495 141.208 272.988 140.354L255.367 134.352L273.924 124.081C276.183 122.831 275.295 119.394 272.713 119.394H256.673L274.631 107.543C276.7 106.177 275.733 102.956 273.254 102.956H255.537L274.74 85.3782C276.645 83.6348 274.978 80.4997 272.468 81.1034L249.107 86.7205L266.396 61.0188C267.801 58.9302 265.586 56.309 263.292 57.3451L238.761 68.4256L246.316 36.8038C246.909 34.3249 243.846 32.6529 242.081 34.4915L221.419 56.0143L222.848 22.33C222.956 19.7782 219.619 18.7256 218.244 20.8776L203.01 44.7103V13.3498C203.01 10.5318 199.073 9.86757 198.148 12.5295L187.632 42.8044L184.659 10.5996C184.396 7.75042 180.328 7.50578 179.726 10.3029L172.891 42.03L166.258 4.33431C165.791 1.68055 162.035 1.54158 161.373 4.1535L151.667 42.4568L145.553 4.68838L144.072 4.92809L145.553 4.68837C145.116 1.9916 141.289 1.84927 140.654 4.50604L131.6 42.3376L125.458 5.97703C124.984 3.16983 120.936 3.21141 120.52 6.02789L115.172 42.2057L106.354 7.40368C105.631 4.55038 101.43 5.07438 101.43 8.01775V40.1002L91.9311 9.98444L90.5006 10.4357L91.9311 9.98444C91.0709 7.25753 87.0469 7.8771 87.0469 10.7365V47.6744L70.8123 11.8739C69.6609 9.33484 65.8459 10.3008 66.0416 13.0819L68.8644 53.187L44.0553 26.9389C42.1351 24.9073 38.8359 27.079 39.9427 29.646L56.073 67.0564L27.4319 48.2705C25.1277 46.7592 22.4315 49.5414 24.0143 51.797L43.1307 79.039L14.8051 70.8843C12.2227 70.1409 10.4462 73.4387 12.4879 75.1861L33.7691 93.4L9.05214 88.5435C6.3865 88.0197 4.91622 91.5247 7.15779 93.0594L7.99171 91.8414L7.15779 93.0594L40.757 116.064L8.07466 119.019C5.44862 119.256 4.93139 122.871 7.38545 123.836L35.4317 134.857L12.991 146.299C10.6503 147.493 11.4992 151.026 14.1266 151.026H45.0456H227.01ZM68.9626 54.5816C68.9626 54.5813 68.9626 54.581 68.9625 54.5807L68.9626 54.5816ZM69.8235 54.2017C69.8239 54.2022 69.8243 54.2026 69.8248 54.203L69.8235 54.2017ZM35.6363 93.7669L35.6356 93.7668L35.6363 93.7669Z" fill="#F3EFD2" stroke="black" stroke-width="3"/>
<path d="M143.755 205.789C172.987 205.789 199.514 197.25 218.77 183.369C238.024 169.49 250.101 150.185 250.101 128.711C250.101 107.237 238.024 87.9317 218.77 74.0527C199.514 60.1721 172.987 51.6333 143.755 51.6333C114.523 51.6333 87.9964 60.1721 68.7403 74.0527C49.4864 87.9317 37.4087 107.237 37.4087 128.711C37.4087 150.185 49.4864 169.49 68.7403 183.369C87.9964 197.25 114.523 205.789 143.755 205.789Z" fill="#FFE8C5" stroke="black" stroke-width="3"/>
<path d="M82.8108 123.783C101.408 123.783 116.288 107.519 116.288 87.707C116.288 67.8955 101.408 51.6313 82.8108 51.6313C64.2136 51.6313 49.3335 67.8955 49.3335 87.707C49.3335 107.519 64.2136 123.783 82.8108 123.783Z" fill="white" stroke="black" stroke-width="3"/>
<path d="M82.8108 123.783C101.408 123.783 116.288 107.519 116.288 87.707C116.288 67.8955 101.408 51.6313 82.8108 51.6313C64.2136 51.6313 49.3335 67.8955 49.3335 87.707C49.3335 107.519 64.2136 123.783 82.8108 123.783Z" fill="white" stroke="black" stroke-width="3"/>
<path d="M82.8107 108.395C93.3145 108.395 101.569 98.9906 101.569 87.729C101.569 76.4673 93.3145 67.063 82.8107 67.063C72.3069 67.063 64.0527 76.4673 64.0527 87.729C64.0527 98.9906 72.3069 108.395 82.8107 108.395Z" fill="#1480FF" stroke="black" stroke-width="3"/>
<path d="M175.732 123.786C194.329 123.786 209.21 107.522 209.21 87.71C209.21 67.8984 194.329 51.6343 175.732 51.6343C157.135 51.6343 142.255 67.8984 142.255 87.71C142.255 107.522 157.135 123.786 175.732 123.786Z" fill="white" stroke="black" stroke-width="3"/>
<path d="M175.732 123.786C194.329 123.786 209.21 107.522 209.21 87.71C209.21 67.8984 194.329 51.6343 175.732 51.6343C157.135 51.6343 142.255 67.8984 142.255 87.71C142.255 107.522 157.135 123.786 175.732 123.786Z" fill="white" stroke="black" stroke-width="3"/>
<path d="M175.732 108.398C186.236 108.398 194.49 98.9936 194.49 87.7319C194.49 76.4702 186.236 67.0659 175.732 67.0659C165.228 67.0659 156.974 76.4702 156.974 87.7319C156.974 98.9936 165.228 108.398 175.732 108.398Z" fill="#1480FF" stroke="black" stroke-width="3"/>
<path d="M88.7972 151.611C87.9743 151.707 87.3849 152.451 87.4808 153.274L89.0424 166.684C89.1382 167.507 89.883 168.096 90.7058 168C91.5287 167.904 92.1181 167.159 92.0222 166.337L90.6341 154.417L102.554 153.029C103.376 152.933 103.966 152.189 103.87 151.366C103.774 150.543 103.029 149.953 102.207 150.049L88.7972 151.611ZM173.845 150.404C173.793 149.577 173.08 148.949 172.253 149.002L158.78 149.855C157.953 149.907 157.326 150.62 157.378 151.447C157.43 152.274 158.143 152.901 158.97 152.849L170.946 152.09L171.704 164.066C171.757 164.893 172.47 165.521 173.296 165.469C174.123 165.416 174.751 164.703 174.698 163.877L173.845 150.404ZM88.0399 154.277C96.166 160.708 110.144 168.284 125.775 170.14C141.487 172.005 158.863 168.077 173.474 151.49L171.222 149.507C157.354 165.251 141.005 168.926 126.129 167.161C111.173 165.385 97.7018 158.098 89.9016 151.925L88.0399 154.277Z" fill="black"/>
</g>
<defs>
<filter id="filter0_d_36_2287" x="0" y="0" width="281.261" height="215.289" filterUnits="userSpaceOnUse" color-interpolation-filters="sRGB">
<feFlood flood-opacity="0" result="BackgroundImageFix"/>
<feColorMatrix in="SourceAlpha" type="matrix" values="0 0 0 0 0 0 0 0 0 0 0 0 0 0 0 0 0 0 127 0" result="hardAlpha"/>
<feOffset dy="4"/>
<feGaussianBlur stdDeviation="2"/>
<feComposite in2="hardAlpha" operator="out"/>
<feColorMatrix type="matrix" values="0 0 0 0 0 0 0 0 0 0 0 0 0 0 0 0 0 0 0.25 0"/>
<feBlend mode="normal" in2="BackgroundImageFix" result="effect1_dropShadow_36_2287"/>
<feBlend mode="normal" in="SourceGraphic" in2="effect1_dropShadow_36_2287" result="shape"/>
</filter>
</defs>
</svg>
