<svg width="256" height="208" viewBox="0 0 256 208" fill="none" xmlns="http://www.w3.org/2000/svg">
<path d="M83.1864 32.6775C78.8578 31.751 71.3369 27.1187 75.8819 16.0012C84.3226 7.10715 93.4667 12.2953 96.9837 16.0012L83.1864 32.6775Z" fill="#F3EFD2" stroke="black" stroke-width="3"/>
<path d="M156.795 25.4078C153.628 21.8912 150.187 11.8036 160.892 7.45896C172.227 5.28666 175.143 14.9173 176.301 20.2385L156.795 25.4078Z" fill="#F3EFD2" stroke="black" stroke-width="3"/>
<path d="M17.1464 181.82C18.9036 181.251 27.7757 169.732 49.2056 128.211L36.5721 124.136C42.8436 140.142 20.1 164.442 7.9443 174.591L17.1464 181.82Z" fill="#F3EFD2" stroke="black" stroke-width="3"/>
<path d="M238.277 175.236C236.52 174.666 227.648 163.147 206.218 121.626L218.852 117.551C212.58 133.557 235.324 157.857 247.48 168.006L238.277 175.236Z" fill="#F3EFD2" stroke="black" stroke-width="3"/>
<path d="M42.4523 181.88C41.5609 180.485 42.5415 168.865 53.5955 133.549L65.1845 139.257C50.5646 143.824 51.3669 170.844 53.5955 183.783L42.4523 181.88Z" fill="#F3EFD2" stroke="black" stroke-width="3"/>
<path d="M216.101 181.88C216.993 180.485 216.012 168.865 204.958 133.549L193.369 139.257C207.989 143.824 207.187 170.844 204.958 183.783L216.101 181.88Z" fill="#F3EFD2" stroke="black" stroke-width="3"/>
<path d="M62.295 203.32C61.3761 201.384 62.3869 185.263 73.7817 136.266L85.7279 144.185C70.6574 150.521 71.4844 188.008 73.7817 205.96L62.295 203.32Z" fill="#F3EFD2" stroke="black" stroke-width="3"/>
<path d="M193.148 203.32C194.067 201.384 193.056 185.263 181.662 136.266L169.715 144.185C184.786 150.521 183.959 188.008 181.662 205.96L193.148 203.32Z" fill="#F3EFD2" stroke="black" stroke-width="3"/>
<path d="M195.128 38.7441C199.241 36.9369 201.339 32.3992 195.128 22.4038C185.434 15.4018 181.826 20.8223 178.946 25.1954L195.128 38.7441Z" fill="#F3EFD2" stroke="black" stroke-width="3"/>
<path d="M129.414 164.92C158.646 164.92 185.172 156.382 204.428 142.501C223.682 128.622 235.76 109.317 235.76 87.8426C235.76 66.3684 223.682 47.0633 204.428 33.1843C185.172 19.3037 158.646 10.7649 129.414 10.7649C100.182 10.7649 73.6551 19.3037 54.399 33.1843C35.1451 47.0633 23.0674 66.3684 23.0674 87.8426C23.0674 109.317 35.1451 128.622 54.399 142.501C73.6551 156.382 100.182 164.92 129.414 164.92Z" fill="#F8D39D" stroke="black" stroke-width="3"/>
<path d="M68.4695 82.9199C87.0667 82.9199 101.947 66.6558 101.947 46.8442C101.947 27.0327 87.0667 10.7686 68.4695 10.7686C49.8723 10.7686 34.9922 27.0327 34.9922 46.8442C34.9922 66.6558 49.8723 82.9199 68.4695 82.9199Z" fill="white" stroke="black" stroke-width="3"/>
<path d="M68.4695 82.9199C87.0667 82.9199 101.947 66.6558 101.947 46.8442C101.947 27.0327 87.0667 10.7686 68.4695 10.7686C49.8723 10.7686 34.9922 27.0327 34.9922 46.8442C34.9922 66.6558 49.8723 82.9199 68.4695 82.9199Z" fill="white" stroke="black" stroke-width="3"/>
<path d="M68.4689 67.5321C78.9727 67.5321 87.2268 58.1278 87.2268 46.8662C87.2268 35.6045 78.9727 26.2002 68.4689 26.2002C57.9651 26.2002 49.7109 35.6045 49.7109 46.8662C49.7109 58.1278 57.9651 67.5321 68.4689 67.5321Z" fill="#2DB051" stroke="black" stroke-width="3"/>
<path d="M161.391 82.9207C179.989 82.9207 194.869 66.6565 194.869 46.845C194.869 27.0334 179.989 10.7693 161.391 10.7693C142.794 10.7693 127.914 27.0334 127.914 46.845C127.914 66.6565 142.794 82.9207 161.391 82.9207Z" fill="white" stroke="black" stroke-width="3"/>
<path d="M161.391 82.9207C179.989 82.9207 194.869 66.6565 194.869 46.845C194.869 27.0334 179.989 10.7693 161.391 10.7693C142.794 10.7693 127.914 27.0334 127.914 46.845C127.914 66.6565 142.794 82.9207 161.391 82.9207Z" fill="white" stroke="black" stroke-width="3"/>
<path d="M161.392 67.5351C171.896 67.5351 180.15 58.1308 180.15 46.8691C180.15 35.6074 171.896 26.2031 161.392 26.2031C150.888 26.2031 142.634 35.6074 142.634 46.8691C142.634 58.1308 150.888 67.5351 161.392 67.5351Z" fill="#2DB051" stroke="black" stroke-width="3"/>
<path d="M74.4554 110.749C73.6325 110.845 73.0431 111.589 73.139 112.412L74.7006 125.822C74.7964 126.644 75.5412 127.234 76.364 127.138C77.1869 127.042 77.7763 126.297 77.6804 125.475L76.2923 113.555L88.2118 112.167C89.0347 112.071 89.624 111.326 89.5282 110.504C89.4324 109.681 88.6876 109.091 87.8648 109.187L74.4554 110.749ZM159.503 109.542C159.451 108.715 158.738 108.087 157.911 108.139L144.438 108.993C143.612 109.045 142.984 109.758 143.036 110.585C143.089 111.412 143.801 112.039 144.628 111.987L156.604 111.228L157.363 123.204C157.415 124.031 158.128 124.659 158.955 124.606C159.781 124.554 160.409 123.841 160.357 123.015L159.503 109.542ZM73.6981 113.415C81.8242 119.846 95.8027 127.422 111.434 129.278C127.145 131.143 144.521 127.215 159.132 110.628L156.881 108.645C143.012 124.389 126.663 128.064 111.787 126.299C96.8309 124.523 83.36 117.235 75.5598 111.062L73.6981 113.415Z" fill="black"/>
<path d="M102.961 25.1892C98.895 23.2468 92.3776 16.9155 98.8359 7.12964C108.702 0.451227 116.706 7.71488 119.475 12.1815L102.961 25.1892Z" fill="#F3EFD2" stroke="black" stroke-width="3"/>
<path d="M128.72 23.6134C124.862 21.1555 118.992 14.0242 126.369 5.16278C136.836 -0.171351 144.095 8.07892 146.417 12.8708L128.72 23.6134Z" fill="#F3EFD2" stroke="black" stroke-width="3"/>
</svg>
