<svg width="232" height="198" viewBox="0 0 232 198" fill="none" xmlns="http://www.w3.org/2000/svg">
<g filter="url(#filter0_d_36_2290)">
<path d="M54.4339 9.11625L51.2139 10.3505L54.3121 11.8646L56.297 12.8346C53.9637 12.3862 51.7078 12.1122 49.6439 12.0941C46.4528 12.0662 43.4348 12.647 41.3828 14.462C34.7416 20.3364 31.2804 25.3117 30.3283 27.2277L30.2915 27.3016C27.7387 27.5904 25.376 27.9424 23.2999 28.3685C20.7272 28.8965 18.4895 29.5584 16.8595 30.412C15.3152 31.2208 13.7992 32.4871 13.7992 34.4121C13.7992 38.5839 16.1355 41.0947 18.8918 42.4399C19.7991 42.8828 20.7585 43.2056 21.7104 43.4335C18.6457 45.414 15.3782 48.0882 12.9137 51.2923C9.19175 56.1313 7.18447 62.3844 10.8299 69.1558C12.8703 72.946 13.0615 74.6554 12.8418 75.5198C12.7434 75.9071 12.5348 76.2345 12.1497 76.6059C11.8089 76.9346 11.4119 77.2265 10.8936 77.6076C10.7601 77.7057 10.6187 77.8097 10.4681 77.9218C9.04999 78.9769 7.30577 80.4192 6.3099 83.2154C5.33624 85.9493 5.14326 89.7838 6.27075 95.5254C6.58077 97.1041 7.57552 98.4314 8.92071 99.5397C10.2659 100.648 12.0601 101.621 14.1886 102.491C18.4475 104.23 24.3225 105.663 31.3655 106.848C45.472 109.223 64.5863 110.655 85.5977 111.435C127.638 112.993 177.492 111.942 210.574 110.493L210.829 110.482L211.066 110.387C213.581 109.381 217.315 107.464 220.387 104.94C223.377 102.483 226.172 99.0906 225.857 95.1182C225.35 88.6945 223.118 71.6058 222.07 63.8982L219.118 63.7815L215.921 78.4861C213.063 69.4159 209.311 58.2285 205.798 49.2181C203.675 43.775 201.608 39.0437 199.853 36.0555C199.01 34.6203 198.107 33.3486 197.16 32.7C196.664 32.3603 195.9 32.0192 195.027 32.2689C194.169 32.5145 193.682 33.1977 193.411 33.7693C193.181 34.2523 192.988 34.7508 192.827 35.261C187.246 24.4 177.831 14.0856 163.28 14.0856C158.488 14.0856 155.264 14.2973 153.314 14.7008C145.519 11.2626 137.252 8.0096 131.176 6.51C128.151 5.76312 125.381 5.37232 123.468 5.82109C122.464 6.05645 121.438 6.58721 120.908 7.67837C120.396 8.73133 120.542 9.91747 120.937 11.0226C121.338 12.1416 121.285 12.6668 121.226 12.8417C121.225 12.8439 121.225 12.8464 121.224 12.8493C121.213 12.8887 121.185 12.9902 120.821 13.0724C120.361 13.1763 119.607 13.1694 118.523 12.9635C117.465 12.7627 116.212 12.3968 114.813 11.8933C109.19 9.86959 101.8 5.84155 96.683 2.71953L95.9026 2.24337L95.1218 2.71874L84.4167 9.23563L82.8984 10.1599L84.0648 11.5012L88.1313 16.1772C71.5747 6.99589 59.2977 7.25197 54.4339 9.11625Z" fill="#F3EFD2" stroke="black" stroke-width="3"/>
<path d="M116.766 188.012C145.998 188.012 172.524 179.473 191.78 165.593C211.034 151.714 223.112 132.408 223.112 110.934C223.112 89.4599 211.034 70.1549 191.78 56.2758C172.524 42.3953 145.998 33.8564 116.766 33.8564C87.5336 33.8564 61.0071 42.3953 41.7511 56.2758C22.4972 70.1549 10.4194 89.4599 10.4194 110.934C10.4194 132.408 22.4972 151.714 41.7511 165.593C61.0071 179.473 87.5336 188.012 116.766 188.012Z" fill="#FFE8C5" stroke="black" stroke-width="3"/>
<path d="M55.8221 106.007C74.4193 106.007 89.2994 89.7432 89.2994 69.9316C89.2994 50.1201 74.4193 33.856 55.8221 33.856C37.2249 33.856 22.3447 50.1201 22.3447 69.9316C22.3447 89.7432 37.2249 106.007 55.8221 106.007Z" fill="white" stroke="black" stroke-width="3"/>
<path d="M55.8221 106.007C74.4193 106.007 89.2994 89.7432 89.2994 69.9316C89.2994 50.1201 74.4193 33.856 55.8221 33.856C37.2249 33.856 22.3447 50.1201 22.3447 69.9316C22.3447 89.7432 37.2249 106.007 55.8221 106.007Z" fill="white" stroke="black" stroke-width="3"/>
<path d="M55.8214 90.6195C66.3252 90.6195 74.5793 81.2152 74.5793 69.9536C74.5793 58.6919 66.3252 49.2876 55.8214 49.2876C45.3176 49.2876 37.0635 58.6919 37.0635 69.9536C37.0635 81.2152 45.3176 90.6195 55.8214 90.6195Z" fill="#1480FF" stroke="black" stroke-width="3"/>
<path d="M148.742 106.008C167.34 106.008 182.22 89.7437 182.22 69.9321C182.22 50.1206 167.34 33.8564 148.742 33.8564C130.145 33.8564 115.265 50.1206 115.265 69.9321C115.265 89.7437 130.145 106.008 148.742 106.008Z" fill="white" stroke="black" stroke-width="3"/>
<path d="M148.742 106.008C167.34 106.008 182.22 89.7437 182.22 69.9321C182.22 50.1206 167.34 33.8564 148.742 33.8564C130.145 33.8564 115.265 50.1206 115.265 69.9321C115.265 89.7437 130.145 106.008 148.742 106.008Z" fill="white" stroke="black" stroke-width="3"/>
<path d="M148.743 90.62C159.247 90.62 167.501 81.2157 167.501 69.9541C167.501 58.6924 159.247 49.2881 148.743 49.2881C138.239 49.2881 129.985 58.6924 129.985 69.9541C129.985 81.2157 138.239 90.62 148.743 90.62Z" fill="#1480FF" stroke="black" stroke-width="3"/>
<path d="M61.8074 133.838C60.9846 133.934 60.3952 134.679 60.491 135.502L62.0526 148.911C62.1485 149.734 62.8932 150.323 63.7161 150.228C64.5389 150.132 65.1283 149.387 65.0325 148.564L63.6444 136.645L75.5638 135.257C76.3867 135.161 76.9761 134.416 76.8803 133.593C76.7844 132.77 76.0397 132.181 75.2168 132.277L61.8074 133.838ZM146.855 132.631C146.803 131.804 146.09 131.177 145.263 131.229L131.79 132.083C130.964 132.135 130.336 132.848 130.388 133.674C130.441 134.501 131.153 135.129 131.98 135.077L143.956 134.318L144.715 146.294C144.767 147.121 145.48 147.748 146.307 147.696C147.133 147.644 147.761 146.931 147.709 146.104L146.855 132.631ZM61.0501 136.505C69.1762 142.935 83.1547 150.512 98.7857 152.367C114.497 154.232 131.873 150.304 146.484 133.718L144.233 131.735C130.364 147.479 114.016 151.154 99.1393 149.388C84.1829 147.613 70.7121 140.325 62.9118 134.152L61.0501 136.505Z" fill="black"/>
</g>
<defs>
<filter id="filter0_d_36_2290" x="0" y="0.486816" width="231.382" height="197.025" filterUnits="userSpaceOnUse" color-interpolation-filters="sRGB">
<feFlood flood-opacity="0" result="BackgroundImageFix"/>
<feColorMatrix in="SourceAlpha" type="matrix" values="0 0 0 0 0 0 0 0 0 0 0 0 0 0 0 0 0 0 127 0" result="hardAlpha"/>
<feOffset dy="4"/>
<feGaussianBlur stdDeviation="2"/>
<feComposite in2="hardAlpha" operator="out"/>
<feColorMatrix type="matrix" values="0 0 0 0 0 0 0 0 0 0 0 0 0 0 0 0 0 0 0.25 0"/>
<feBlend mode="normal" in2="BackgroundImageFix" result="effect1_dropShadow_36_2290"/>
<feBlend mode="normal" in="SourceGraphic" in2="effect1_dropShadow_36_2290" result="shape"/>
</filter>
</defs>
</svg>
