<svg width="216" height="279" viewBox="0 0 216 279" fill="none" xmlns="http://www.w3.org/2000/svg">
<path d="M10.5952 265.182L18.7814 245.632L25.0785 247.442L35.7835 265.182L25.0785 258.304L22.5597 269.527L18.7814 258.304L10.5952 265.182Z" fill="#F3EFD2" stroke="black" stroke-width="3"/>
<path d="M203.719 268.531L195.533 248.98L189.235 250.79L178.53 268.531L189.235 261.652L191.754 272.875L195.533 261.652L203.719 268.531Z" fill="#F3EFD2" stroke="black" stroke-width="3"/>
<ellipse cx="193.013" cy="149.417" rx="6.4545" ry="14.844" fill="#D9D9D9"/>
<ellipse cx="193.013" cy="179.106" rx="6.4545" ry="14.844" fill="#D9D9D9"/>
<ellipse cx="193.013" cy="208.795" rx="6.4545" ry="14.844" fill="#D9D9D9"/>
<ellipse cx="193.013" cy="238.485" rx="6.4545" ry="14.844" fill="#D9D9D9"/>
<path d="M193.013 165.761C194.404 165.761 195.608 165.106 196.571 164.169C197.527 163.24 198.32 161.967 198.953 160.511C200.221 157.595 200.968 153.672 200.968 149.417C200.968 145.162 200.221 141.238 198.953 138.322C198.32 136.867 197.527 135.594 196.571 134.664C195.608 133.727 194.404 133.073 193.013 133.073C191.622 133.073 190.418 133.727 189.455 134.664C188.499 135.594 187.706 136.867 187.073 138.322C185.806 141.238 185.059 145.162 185.059 149.417C185.059 153.672 185.806 157.595 187.073 160.511C187.706 161.967 188.499 163.24 189.455 164.169C190.418 165.106 191.622 165.761 193.013 165.761Z" fill="#F3EFD2" stroke="black" stroke-width="3"/>
<path d="M193.013 195.45C194.404 195.45 195.608 194.796 196.571 193.859C197.527 192.929 198.32 191.656 198.953 190.201C200.221 187.285 200.968 183.361 200.968 179.106C200.968 174.851 200.221 170.928 198.953 168.012C198.32 166.556 197.527 165.283 196.571 164.354C195.608 163.417 194.404 162.762 193.013 162.762C191.622 162.762 190.418 163.417 189.455 164.354C188.499 165.283 187.706 166.556 187.073 168.012C185.806 170.928 185.059 174.851 185.059 179.106C185.059 183.361 185.806 187.285 187.073 190.201C187.706 191.656 188.499 192.929 189.455 193.859C190.418 194.796 191.622 195.45 193.013 195.45Z" fill="#F3EFD2" stroke="black" stroke-width="3"/>
<path d="M193.013 225.139C194.404 225.139 195.608 224.485 196.571 223.548C197.527 222.618 198.32 221.345 198.953 219.89C200.221 216.974 200.968 213.05 200.968 208.795C200.968 204.54 200.221 200.617 198.953 197.701C198.32 196.245 197.527 194.972 196.571 194.042C195.608 193.106 194.404 192.451 193.013 192.451C191.622 192.451 190.418 193.106 189.455 194.042C188.499 194.972 187.706 196.245 187.073 197.701C185.806 200.617 185.059 204.54 185.059 208.795C185.059 213.05 185.806 216.974 187.073 219.89C187.706 221.345 188.499 222.618 189.455 223.548C190.418 224.485 191.622 225.139 193.013 225.139Z" fill="#F3EFD2" stroke="black" stroke-width="3"/>
<path d="M193.013 254.829C194.404 254.829 195.608 254.174 196.571 253.237C197.527 252.307 198.32 251.035 198.953 249.579C200.221 246.663 200.968 242.739 200.968 238.485C200.968 234.23 200.221 230.306 198.953 227.39C198.32 225.935 197.527 224.662 196.571 223.732C195.608 222.795 194.404 222.141 193.013 222.141C191.622 222.141 190.418 222.795 189.455 223.732C188.499 224.662 187.706 225.935 187.073 227.39C185.806 230.306 185.059 234.23 185.059 238.485C185.059 242.739 185.806 246.663 187.073 249.579C187.706 251.035 188.499 252.307 189.455 253.237C190.418 254.174 191.622 254.829 193.013 254.829Z" fill="#F3EFD2" stroke="black" stroke-width="3"/>
<ellipse cx="23.1903" cy="145.074" rx="6.4545" ry="14.844" fill="#D9D9D9"/>
<ellipse cx="23.1903" cy="174.762" rx="6.4545" ry="14.844" fill="#D9D9D9"/>
<ellipse cx="23.1903" cy="204.451" rx="6.4545" ry="14.844" fill="#D9D9D9"/>
<ellipse cx="23.1903" cy="234.141" rx="6.4545" ry="14.844" fill="#D9D9D9"/>
<path d="M23.1903 161.418C24.5811 161.418 25.7856 160.763 26.7486 159.826C27.7047 158.896 28.497 157.624 29.13 156.168C30.3979 153.252 31.1448 149.328 31.1448 145.074C31.1448 140.819 30.3979 136.895 29.13 133.979C28.497 132.523 27.7047 131.251 26.7486 130.321C25.7856 129.384 24.5811 128.729 23.1903 128.729C21.7996 128.729 20.5951 129.384 19.6321 130.321C18.676 131.251 17.8837 132.523 17.2507 133.979C15.9828 136.895 15.2358 140.819 15.2358 145.074C15.2358 149.328 15.9828 153.252 17.2507 156.168C17.8837 157.624 18.676 158.896 19.6321 159.826C20.5951 160.763 21.7996 161.418 23.1903 161.418Z" fill="#F3EFD2" stroke="black" stroke-width="3"/>
<path d="M23.1903 191.106C24.5811 191.106 25.7856 190.452 26.7486 189.515C27.7047 188.585 28.497 187.313 29.13 185.857C30.3979 182.941 31.1448 179.017 31.1448 174.762C31.1448 170.508 30.3979 166.584 29.13 163.668C28.497 162.212 27.7047 160.94 26.7486 160.01C25.7856 159.073 24.5811 158.418 23.1903 158.418C21.7996 158.418 20.5951 159.073 19.6321 160.01C18.676 160.94 17.8837 162.212 17.2507 163.668C15.9828 166.584 15.2358 170.508 15.2358 174.762C15.2358 179.017 15.9828 182.941 17.2507 185.857C17.8837 187.313 18.676 188.585 19.6321 189.515C20.5951 190.452 21.7996 191.106 23.1903 191.106Z" fill="#F3EFD2" stroke="black" stroke-width="3"/>
<path d="M23.1903 220.795C24.5811 220.795 25.7856 220.141 26.7486 219.204C27.7047 218.274 28.497 217.002 29.13 215.546C30.3979 212.63 31.1448 208.706 31.1448 204.451C31.1448 200.197 30.3979 196.273 29.13 193.357C28.497 191.901 27.7047 190.629 26.7486 189.699C25.7856 188.762 24.5811 188.107 23.1903 188.107C21.7996 188.107 20.5951 188.762 19.6321 189.699C18.676 190.629 17.8837 191.901 17.2507 193.357C15.9828 196.273 15.2358 200.197 15.2358 204.451C15.2358 208.706 15.9828 212.63 17.2507 215.546C17.8837 217.002 18.676 218.274 19.6321 219.204C20.5951 220.141 21.7996 220.795 23.1903 220.795Z" fill="#F3EFD2" stroke="black" stroke-width="3"/>
<path d="M23.1903 250.485C24.5811 250.485 25.7856 249.83 26.7486 248.894C27.7047 247.964 28.497 246.691 29.13 245.235C30.3979 242.319 31.1448 238.396 31.1448 234.141C31.1448 229.886 30.3979 225.962 29.13 223.046C28.497 221.591 27.7047 220.318 26.7486 219.388C25.7856 218.451 24.5811 217.797 23.1903 217.797C21.7996 217.797 20.5951 218.451 19.6321 219.388C18.676 220.318 17.8837 221.591 17.2507 223.046C15.9828 225.962 15.2358 229.886 15.2358 234.141C15.2358 238.396 15.9828 242.319 17.2507 245.235C17.8837 246.691 18.676 247.964 19.6321 248.894C20.5951 249.83 21.7996 250.485 23.1903 250.485Z" fill="#F3EFD2" stroke="black" stroke-width="3"/>
<path d="M72.2128 7.82437L74.2241 9.069C72.1038 8.40878 70.1301 7.88296 68.6248 7.6548C67.8511 7.53753 67.0619 7.47548 66.4051 7.58424C66.0761 7.6387 65.6448 7.75664 65.263 8.05013C64.8258 8.38615 64.538 8.89178 64.507 9.49104C64.4337 10.9098 65.4986 11.9137 66.2876 12.4909C66.9079 12.9447 67.6646 13.3586 68.4726 13.7316C68.3655 13.7407 68.2593 13.7499 68.1541 13.7595C66.7458 13.8868 65.4256 14.0594 64.5075 14.305C64.1054 14.4126 63.5269 14.5947 63.1018 14.9579C62.868 15.1577 62.504 15.5654 62.4675 16.1996C62.4302 16.8491 62.7586 17.3186 62.9982 17.5672C63.3151 17.896 63.7173 18.145 64.0724 18.333C64.4487 18.5322 64.8809 18.7186 65.3356 18.8923C66.2458 19.2401 67.3443 19.5738 68.4724 19.8777C70.7334 20.4867 73.2334 21.0077 74.8498 21.3027L74.9083 21.3134L74.9673 21.3194L107.131 24.6L123.898 29.8803L125.116 30.2638L125.673 29.1287L129.375 21.5838L130.238 19.8247L128.302 19.4322L110.471 15.8168C110.294 14.8285 109.999 13.6465 109.553 12.5175C108.954 10.9983 107.923 9.15936 106.162 8.38521C105.782 8.21806 105.214 8.0267 104.605 8.14259C104.265 8.20733 103.927 8.36629 103.651 8.64126C103.384 8.90739 103.241 9.21493 103.166 9.47949C103.029 9.96655 103.083 10.4529 103.144 10.7877C103.212 11.1569 103.328 11.542 103.461 11.9118C103.721 12.6343 104.101 13.4525 104.508 14.2427L95.1524 14.5672C85.8435 7.41953 79.0933 3.95755 74.3605 2.60139C71.9548 1.91206 70.0005 1.74657 68.466 1.97265C66.9394 2.19755 65.7161 2.83429 65.018 3.84743L63.7998 5.6153L65.8982 6.1663L72.2128 7.82437Z" fill="#F3EFD2" stroke="black" stroke-width="3"/>
<path d="M107.846 171.283C137.078 171.283 163.605 162.745 182.861 148.864C202.115 134.985 214.193 115.68 214.193 94.2057C214.193 72.7314 202.115 53.4264 182.861 39.5473C163.605 25.6667 137.078 17.1279 107.846 17.1279C78.6142 17.1279 52.0877 25.6667 32.8316 39.5473C13.5778 53.4264 1.5 72.7314 1.5 94.2057C1.5 115.68 13.5778 134.985 32.8316 148.864C52.0877 162.745 78.6142 171.283 107.846 171.283Z" fill="#FFE7C4" stroke="black" stroke-width="3"/>
<path d="M46.9022 89.2832C65.4994 89.2832 80.3795 73.0191 80.3795 53.2075C80.3795 33.396 65.4994 17.1318 46.9022 17.1318C28.3049 17.1318 13.4248 33.396 13.4248 53.2075C13.4248 73.0191 28.3049 89.2832 46.9022 89.2832Z" fill="white" stroke="black" stroke-width="3"/>
<path d="M46.9022 89.2832C65.4994 89.2832 80.3795 73.0191 80.3795 53.2075C80.3795 33.396 65.4994 17.1318 46.9022 17.1318C28.3049 17.1318 13.4248 33.396 13.4248 53.2075C13.4248 73.0191 28.3049 89.2832 46.9022 89.2832Z" fill="white" stroke="black" stroke-width="3"/>
<path d="M46.9025 73.8954C57.4063 73.8954 65.6604 64.4911 65.6604 53.2294C65.6604 41.9678 57.4063 32.5635 46.9025 32.5635C36.3987 32.5635 28.1445 41.9678 28.1445 53.2294C28.1445 64.4911 36.3987 73.8954 46.9025 73.8954Z" fill="#2DB051" stroke="black" stroke-width="3"/>
<path d="M139.823 89.2861C158.42 89.2861 173.3 73.022 173.3 53.2104C173.3 33.3989 158.42 17.1348 139.823 17.1348C121.226 17.1348 106.346 33.3989 106.346 53.2104C106.346 73.022 121.226 89.2861 139.823 89.2861Z" fill="white" stroke="black" stroke-width="3"/>
<path d="M139.823 89.2861C158.42 89.2861 173.3 73.022 173.3 53.2104C173.3 33.3989 158.42 17.1348 139.823 17.1348C121.226 17.1348 106.346 33.3989 106.346 53.2104C106.346 73.022 121.226 89.2861 139.823 89.2861Z" fill="white" stroke="black" stroke-width="3"/>
<path d="M139.823 73.8983C150.327 73.8983 158.581 64.494 158.581 53.2324C158.581 41.9707 150.327 32.5664 139.823 32.5664C129.32 32.5664 121.065 41.9707 121.065 53.2324C121.065 64.494 129.32 73.8983 139.823 73.8983Z" fill="#2DB051" stroke="black" stroke-width="3"/>
<path d="M52.888 117.11C52.0651 117.206 51.4758 117.95 51.5716 118.773L53.1332 132.183C53.229 133.006 53.9738 133.595 54.7966 133.499C55.6195 133.403 56.2089 132.659 56.1131 131.836L54.725 119.916L66.6444 118.528C67.4673 118.432 68.0567 117.688 67.9608 116.865C67.865 116.042 67.1203 115.452 66.2974 115.548L52.888 117.11ZM137.936 115.903C137.883 115.076 137.171 114.448 136.344 114.501L122.871 115.354C122.044 115.406 121.416 116.119 121.469 116.946C121.521 117.773 122.234 118.4 123.061 118.348L135.037 117.589L135.795 129.565C135.848 130.392 136.56 131.02 137.387 130.968C138.214 130.915 138.842 130.202 138.789 129.376L137.936 115.903ZM52.1307 119.776C60.2568 126.207 74.2353 133.783 89.8663 135.639C105.577 137.504 122.954 133.576 137.564 116.989L135.313 115.006C121.445 130.75 105.096 134.425 90.2199 132.66C75.2635 130.884 61.7926 123.597 53.9924 117.424L52.1307 119.776Z" fill="black"/>
</svg>
