<svg width="236" height="179" viewBox="0 0 236 179" fill="none" xmlns="http://www.w3.org/2000/svg">
<g filter="url(#filter0_d_36_2291)">
<path d="M28.8081 63.5527C28.8081 62.3198 28.6523 61.1175 28.3597 59.9732C32.356 58.1956 35.1808 54.0265 35.6321 49.2072C40.6607 48.5258 44.5491 44.3112 45.58 39.0504C48.7541 38.6837 51.4887 36.9129 53.3596 34.3521C54.6885 34.9454 56.1472 35.2742 57.6915 35.2742C61.7484 35.2742 65.2148 33.0055 67.2877 29.6312C69.0206 30.7956 71.0606 31.4727 73.2767 31.4727C77.7121 31.4727 81.4417 28.7609 83.4162 24.8574C85.3659 26.555 87.8267 27.5806 90.5544 27.5806C94.2287 27.5806 97.4187 25.7196 99.5277 22.8618C101.637 25.7196 104.827 27.5806 108.501 27.5806C112.063 27.5806 115.17 25.8319 117.278 23.1215C119.386 25.8319 122.492 27.5806 126.054 27.5806C129.561 27.5806 132.627 25.8855 134.732 23.2464C136.838 25.8855 139.904 27.5806 143.41 27.5806C145.48 27.5806 147.395 26.9905 149.05 25.9645C151.132 29.2643 154.56 31.4727 158.563 31.4727C159.71 31.4727 160.81 31.2912 161.845 30.9547C163.546 35.6722 167.651 39.1209 172.653 39.1209C174.043 39.1209 175.365 38.8543 176.584 38.3679C178.222 43.2285 182.39 46.8145 187.49 46.8145C187.752 46.8145 188.012 46.805 188.268 46.7864C188.915 53.1523 193.705 58.3548 199.848 58.3548C199.91 58.3548 199.973 58.3543 200.035 58.3532C200.012 58.6808 200.001 59.0112 200.001 59.3439C200.001 64.7452 202.99 69.559 207.383 71.4885C207.086 72.6403 206.928 73.8511 206.928 75.093C206.928 82.1089 211.971 88.1333 218.582 88.1333C225.193 88.1333 230.236 82.1089 230.236 75.093C230.236 69.6917 227.247 64.8779 222.854 62.9484C223.151 61.7966 223.309 60.5858 223.309 59.3439C223.309 52.328 218.266 46.3036 211.655 46.3036C211.593 46.3036 211.53 46.3041 211.468 46.3052C211.491 45.9775 211.502 45.6471 211.502 45.3145C211.502 38.2986 206.459 32.2742 199.848 32.2742C199.586 32.2742 199.326 32.2836 199.07 32.3022C198.423 25.9363 193.633 20.7339 187.49 20.7339C186.099 20.7339 184.778 21.0005 183.558 21.4869C181.92 16.6263 177.753 13.0403 172.653 13.0403C171.505 13.0403 170.405 13.2217 169.371 13.5583C167.669 8.84075 163.565 5.39203 158.563 5.39203C156.494 5.39203 154.578 5.98217 152.923 7.00814C150.841 3.7084 147.413 1.5 143.41 1.5C139.904 1.5 136.838 3.19515 134.732 5.83423C132.627 3.19515 129.561 1.5 126.054 1.5C122.492 1.5 119.386 3.24876 117.278 5.95913C115.17 3.24876 112.063 1.5 108.501 1.5C104.827 1.5 101.637 3.36099 99.5277 6.21885C97.4187 3.36099 94.2287 1.5 90.5544 1.5C86.119 1.5 82.3894 4.21175 80.4149 8.11529C78.4652 6.41762 76.0044 5.39203 73.2767 5.39203C69.2199 5.39203 65.7534 7.66071 63.6805 11.035C61.9476 9.87055 59.9076 9.19354 57.6915 9.19354C53.9958 9.19354 50.7901 11.0762 48.6815 13.9624C47.3526 13.3691 45.8938 13.0403 44.3495 13.0403C38.6351 13.0403 34.0922 17.5415 32.9651 23.2935C27.3862 23.9381 23.1653 28.9201 22.6048 34.9049C16.7136 35.7031 12.3874 41.3507 12.3874 47.8488C12.3874 49.0817 12.5432 50.284 12.8358 51.4284C8.46837 53.3711 5.5 58.1701 5.5 63.5527C5.5 70.5685 10.5431 76.593 17.154 76.593C23.765 76.593 28.8081 70.5685 28.8081 63.5527Z" fill="#F3EFD2" stroke="black" stroke-width="3"/>
<path d="M117.867 169.192C147.099 169.192 173.626 160.653 192.882 146.772C212.136 132.893 224.214 113.588 224.214 92.1139C224.214 70.6396 212.136 51.3346 192.882 37.4555C173.626 23.5749 147.099 15.0361 117.867 15.0361C88.6352 15.0361 62.1087 23.5749 42.8526 37.4555C23.5987 51.3346 11.521 70.6396 11.521 92.1139C11.521 113.588 23.5987 132.893 42.8526 146.772C62.1087 160.653 88.6352 169.192 117.867 169.192Z" fill="#FFE8C5" stroke="black" stroke-width="3"/>
<path d="M56.9241 87.1851C75.5213 87.1851 90.4015 70.9209 90.4015 51.1094C90.4015 31.2978 75.5213 15.0337 56.9241 15.0337C38.3269 15.0337 23.4468 31.2978 23.4468 51.1094C23.4468 70.9209 38.3269 87.1851 56.9241 87.1851Z" fill="white" stroke="black" stroke-width="3"/>
<path d="M56.9241 87.1851C75.5213 87.1851 90.4015 70.9209 90.4015 51.1094C90.4015 31.2978 75.5213 15.0337 56.9241 15.0337C38.3269 15.0337 23.4468 31.2978 23.4468 51.1094C23.4468 70.9209 38.3269 87.1851 56.9241 87.1851Z" fill="white" stroke="black" stroke-width="3"/>
<path d="M56.9235 71.7973C67.4273 71.7973 75.6814 62.393 75.6814 51.1313C75.6814 39.8696 67.4273 30.4653 56.9235 30.4653C46.4196 30.4653 38.1655 39.8696 38.1655 51.1313C38.1655 62.393 46.4196 71.7973 56.9235 71.7973Z" fill="#1480FF" stroke="black" stroke-width="3"/>
<path d="M149.846 87.188C168.443 87.188 183.323 70.9239 183.323 51.1123C183.323 31.3007 168.443 15.0366 149.846 15.0366C131.248 15.0366 116.368 31.3007 116.368 51.1123C116.368 70.9239 131.248 87.188 149.846 87.188Z" fill="white" stroke="black" stroke-width="3"/>
<path d="M149.846 87.188C168.443 87.188 183.323 70.9239 183.323 51.1123C183.323 31.3007 168.443 15.0366 149.846 15.0366C131.248 15.0366 116.368 31.3007 116.368 51.1123C116.368 70.9239 131.248 87.188 149.846 87.188Z" fill="white" stroke="black" stroke-width="3"/>
<path d="M149.845 71.8002C160.349 71.8002 168.603 62.3959 168.603 51.1342C168.603 39.8726 160.349 30.4683 149.845 30.4683C139.342 30.4683 131.087 39.8726 131.087 51.1342C131.087 62.3959 139.342 71.8002 149.845 71.8002Z" fill="#1480FF" stroke="black" stroke-width="3"/>
<path d="M62.91 115.014C62.0871 115.109 61.4977 115.854 61.5936 116.677L63.1552 130.086C63.251 130.909 63.9957 131.499 64.8186 131.403C65.6415 131.307 66.2309 130.562 66.135 129.739L64.7469 117.82L76.6664 116.432C77.4893 116.336 78.0786 115.591 77.9828 114.768C77.887 113.946 77.1422 113.356 76.3194 113.452L62.91 115.014ZM147.958 113.807C147.905 112.98 147.193 112.352 146.366 112.404L132.893 113.258C132.066 113.31 131.438 114.023 131.491 114.85C131.543 115.677 132.256 116.304 133.083 116.252L145.059 115.493L145.817 127.469C145.87 128.296 146.582 128.924 147.409 128.871C148.236 128.819 148.864 128.106 148.811 127.28L147.958 113.807ZM62.1526 117.68C70.2788 124.111 84.2572 131.687 99.8882 133.543C115.599 135.407 132.976 131.48 147.586 114.893L145.335 112.91C131.467 128.654 115.118 132.329 100.242 130.563C85.2855 128.788 71.8146 121.5 64.0143 115.327L62.1526 117.68Z" fill="black"/>
</g>
<defs>
<filter id="filter0_d_36_2291" x="0" y="0" width="235.736" height="178.691" filterUnits="userSpaceOnUse" color-interpolation-filters="sRGB">
<feFlood flood-opacity="0" result="BackgroundImageFix"/>
<feColorMatrix in="SourceAlpha" type="matrix" values="0 0 0 0 0 0 0 0 0 0 0 0 0 0 0 0 0 0 127 0" result="hardAlpha"/>
<feOffset dy="4"/>
<feGaussianBlur stdDeviation="2"/>
<feComposite in2="hardAlpha" operator="out"/>
<feColorMatrix type="matrix" values="0 0 0 0 0 0 0 0 0 0 0 0 0 0 0 0 0 0 0.25 0"/>
<feBlend mode="normal" in2="BackgroundImageFix" result="effect1_dropShadow_36_2291"/>
<feBlend mode="normal" in="SourceGraphic" in2="effect1_dropShadow_36_2291" result="shape"/>
</filter>
</defs>
</svg>
