<svg width="274" height="208" viewBox="0 0 274 208" fill="none" xmlns="http://www.w3.org/2000/svg">
<path d="M223.01 151.026H223.106L223.201 151.014L268.5 145.2C271.127 144.863 271.495 141.208 268.988 140.354L251.367 134.352L269.924 124.081C272.183 122.831 271.295 119.394 268.713 119.394H252.673L270.631 107.543C272.7 106.177 271.733 102.956 269.254 102.956H251.537L270.74 85.3782C272.645 83.6348 270.978 80.4997 268.468 81.1034L245.107 86.7205L262.396 61.0188C263.801 58.9302 261.586 56.309 259.292 57.3451L234.761 68.4256L242.316 36.8038C242.909 34.3249 239.846 32.6529 238.081 34.4915L217.419 56.0143L218.848 22.33C218.956 19.7782 215.619 18.7256 214.244 20.8776L199.01 44.7103V13.3498C199.01 10.5318 195.073 9.86757 194.148 12.5295L183.632 42.8044L180.659 10.5996C180.396 7.75042 176.328 7.50578 175.726 10.3029L168.891 42.03L162.258 4.33431C161.791 1.68055 158.035 1.54158 157.373 4.1535L147.667 42.4568L141.553 4.68838L140.072 4.92809L141.553 4.68837C141.116 1.9916 137.289 1.84927 136.654 4.50604L127.6 42.3376L121.458 5.97703C120.984 3.16983 116.936 3.21141 116.52 6.02789L111.172 42.2057L102.354 7.40368C101.631 4.55038 97.4304 5.07438 97.4304 8.01775V40.1002L87.9311 9.98444L86.5006 10.4357L87.9311 9.98444C87.0709 7.25753 83.0469 7.8771 83.0469 10.7365V47.6744L66.8123 11.8739C65.6609 9.33484 61.8459 10.3008 62.0416 13.0819L64.8644 53.187L40.0553 26.9389C38.1351 24.9073 34.8359 27.079 35.9427 29.646L52.073 67.0564L23.4319 48.2705C21.1277 46.7592 18.4315 49.5414 20.0143 51.797L39.1307 79.039L10.8051 70.8843C8.2227 70.1409 6.44623 73.4387 8.48788 75.1861L29.7691 93.4L5.05214 88.5435C2.3865 88.0197 0.916218 91.5247 3.15779 93.0594L3.99171 91.8414L3.15779 93.0594L36.757 116.064L4.07466 119.019C1.44862 119.256 0.93139 122.871 3.38545 123.836L31.4317 134.857L8.991 146.299C6.65029 147.493 7.49921 151.026 10.1266 151.026H41.0456H223.01ZM64.9626 54.5816C64.9626 54.5813 64.9626 54.581 64.9625 54.5807L64.9626 54.5816ZM65.8235 54.2017C65.8239 54.2022 65.8243 54.2026 65.8248 54.203L65.8235 54.2017ZM31.6363 93.7669L31.6356 93.7668L31.6363 93.7669Z" fill="#F3EFD2" stroke="black" stroke-width="3"/>
<path d="M139.755 205.789C168.987 205.789 195.514 197.25 214.77 183.369C234.024 169.49 246.101 150.185 246.101 128.711C246.101 107.237 234.024 87.9317 214.77 74.0527C195.514 60.1721 168.987 51.6333 139.755 51.6333C110.523 51.6333 83.9964 60.1721 64.7403 74.0527C45.4864 87.9317 33.4087 107.237 33.4087 128.711C33.4087 150.185 45.4864 169.49 64.7403 183.369C83.9964 197.25 110.523 205.789 139.755 205.789Z" fill="#F8D49D" stroke="black" stroke-width="3"/>
<path d="M78.8108 123.783C97.4081 123.783 112.288 107.519 112.288 87.707C112.288 67.8955 97.4081 51.6313 78.8108 51.6313C60.2136 51.6313 45.3335 67.8955 45.3335 87.707C45.3335 107.519 60.2136 123.783 78.8108 123.783Z" fill="white" stroke="black" stroke-width="3"/>
<path d="M78.8108 123.783C97.4081 123.783 112.288 107.519 112.288 87.707C112.288 67.8955 97.4081 51.6313 78.8108 51.6313C60.2136 51.6313 45.3335 67.8955 45.3335 87.707C45.3335 107.519 60.2136 123.783 78.8108 123.783Z" fill="white" stroke="black" stroke-width="3"/>
<path d="M78.8107 108.395C89.3145 108.395 97.5686 98.9906 97.5686 87.729C97.5686 76.4673 89.3145 67.063 78.8107 67.063C68.3069 67.063 60.0527 76.4673 60.0527 87.729C60.0527 98.9906 68.3069 108.395 78.8107 108.395Z" fill="#1480FF" stroke="black" stroke-width="3"/>
<path d="M171.732 123.786C190.329 123.786 205.21 107.522 205.21 87.71C205.21 67.8984 190.329 51.6343 171.732 51.6343C153.135 51.6343 138.255 67.8984 138.255 87.71C138.255 107.522 153.135 123.786 171.732 123.786Z" fill="white" stroke="black" stroke-width="3"/>
<path d="M171.732 123.786C190.329 123.786 205.21 107.522 205.21 87.71C205.21 67.8984 190.329 51.6343 171.732 51.6343C153.135 51.6343 138.255 67.8984 138.255 87.71C138.255 107.522 153.135 123.786 171.732 123.786Z" fill="white" stroke="black" stroke-width="3"/>
<path d="M171.732 108.398C182.236 108.398 190.49 98.9936 190.49 87.7319C190.49 76.4702 182.236 67.0659 171.732 67.0659C161.228 67.0659 152.974 76.4702 152.974 87.7319C152.974 98.9936 161.228 108.398 171.732 108.398Z" fill="#1480FF" stroke="black" stroke-width="3"/>
<path d="M84.7972 151.611C83.9743 151.707 83.3849 152.452 83.4808 153.275L85.0424 166.684C85.1382 167.507 85.883 168.096 86.7058 168C87.5287 167.904 88.1181 167.16 88.0222 166.337L86.6341 154.417L98.5536 153.029C99.3765 152.934 99.9658 152.189 99.87 151.366C99.7742 150.543 99.0294 149.954 98.2066 150.049L84.7972 151.611ZM169.845 150.404C169.793 149.577 169.08 148.949 168.253 149.002L154.78 149.855C153.953 149.908 153.326 150.62 153.378 151.447C153.43 152.274 154.143 152.902 154.97 152.849L166.946 152.091L167.704 164.067C167.757 164.893 168.47 165.521 169.296 165.469C170.123 165.416 170.751 164.704 170.698 163.877L169.845 150.404ZM84.0399 154.277C92.166 160.708 106.144 168.285 121.775 170.14C137.487 172.005 154.863 168.077 169.474 151.49L167.222 149.507C153.354 165.251 137.005 168.927 122.129 167.161C107.173 165.386 93.7018 158.098 85.9016 151.925L84.0399 154.277Z" fill="black"/>
</svg>
