<svg width="299" height="383" viewBox="0 0 299 383" fill="none" xmlns="http://www.w3.org/2000/svg">
<g filter="url(#filter0_d_36_2288)">
<path d="M62.7696 363.305L102.871 325.12L174.93 370.009L175.833 370.571L176.663 369.905L232.417 325.14L290.664 369.925L293.101 371.798L293.079 368.725C292.658 311.585 287.302 225.098 272.584 151.339C265.227 114.469 255.514 80.6898 242.859 55.3301C230.243 30.0471 214.488 12.7129 194.842 9.55019C147.58 1.94167 121.936 0.651428 105.462 1.93261C93.8573 2.83514 86.72 5.04411 79.9765 7.1312C77.1659 8.00105 74.4238 8.84974 71.4551 9.57385C66.9424 10.6746 63.7013 13.0701 61.4908 16.2397C59.3024 19.3775 58.1725 23.2008 57.7109 27.1302C56.8028 34.8603 58.4391 43.3607 60.2352 48.9223V362.219V365.718L62.7696 363.305Z" fill="#F3EFD2" stroke="black" stroke-width="3"/>
<path d="M126.017 192.315C155.249 192.315 181.775 183.776 201.031 169.896C220.285 156.017 232.363 136.712 232.363 115.237C232.363 93.7631 220.285 74.4581 201.031 60.5791C181.775 46.6985 155.249 38.1597 126.017 38.1597C96.7846 38.1597 70.2581 46.6985 51.0021 60.5791C31.7482 74.4581 19.6704 93.7631 19.6704 115.237C19.6704 136.712 31.7482 156.017 51.0021 169.896C70.2581 183.776 96.7846 192.315 126.017 192.315Z" fill="#FFE8C5" stroke="black" stroke-width="3"/>
<path d="M65.073 110.313C83.6703 110.313 98.5504 94.0489 98.5504 74.2373C98.5504 54.4257 83.6703 38.1616 65.073 38.1616C46.4758 38.1616 31.5957 54.4257 31.5957 74.2373C31.5957 94.0489 46.4758 110.313 65.073 110.313Z" fill="white" stroke="black" stroke-width="3"/>
<path d="M65.073 110.313C83.6703 110.313 98.5504 94.0489 98.5504 74.2373C98.5504 54.4257 83.6703 38.1616 65.073 38.1616C46.4758 38.1616 31.5957 54.4257 31.5957 74.2373C31.5957 94.0489 46.4758 110.313 65.073 110.313Z" fill="white" stroke="black" stroke-width="3"/>
<path d="M65.0724 94.9252C75.5762 94.9252 83.8303 85.5209 83.8303 74.2592C83.8303 62.9976 75.5762 53.5933 65.0724 53.5933C54.5686 53.5933 46.3145 62.9976 46.3145 74.2592C46.3145 85.5209 54.5686 94.9252 65.0724 94.9252Z" fill="#1480FF" stroke="black" stroke-width="3"/>
<path d="M157.994 110.318C176.592 110.318 191.472 94.0542 191.472 74.2427C191.472 54.4311 176.592 38.167 157.994 38.167C139.397 38.167 124.517 54.4311 124.517 74.2427C124.517 94.0542 139.397 110.318 157.994 110.318Z" fill="white" stroke="black" stroke-width="3"/>
<path d="M157.994 110.318C176.592 110.318 191.472 94.0542 191.472 74.2427C191.472 54.4311 176.592 38.167 157.994 38.167C139.397 38.167 124.517 54.4311 124.517 74.2427C124.517 94.0542 139.397 110.318 157.994 110.318Z" fill="white" stroke="black" stroke-width="3"/>
<path d="M157.995 94.9306C168.499 94.9306 176.753 85.5263 176.753 74.2646C176.753 63.0029 168.499 53.5986 157.995 53.5986C147.491 53.5986 139.237 63.0029 139.237 74.2646C139.237 85.5263 147.491 94.9306 157.995 94.9306Z" fill="#1480FF" stroke="black" stroke-width="3"/>
<path d="M70.7582 139.902C69.9406 140.036 69.3861 140.807 69.5196 141.624L71.6955 154.948C71.829 155.766 72.6 156.32 73.4176 156.187C74.2352 156.053 74.7898 155.282 74.6563 154.464L72.7222 142.621L84.5653 140.687C85.3829 140.554 85.9374 139.783 85.8039 138.965C85.6704 138.147 84.8993 137.593 84.0817 137.726L70.7582 139.902ZM156.5 138.977C156.487 138.148 155.805 137.487 154.977 137.5L141.478 137.711C140.65 137.724 139.989 138.406 140.002 139.235C140.015 140.063 140.697 140.724 141.525 140.711L153.524 140.523L153.711 152.522C153.724 153.35 154.406 154.011 155.235 153.998C156.063 153.985 156.724 153.303 156.711 152.475L156.5 138.977ZM70.1242 142.6C78.3131 148.49 92.3816 155.416 108.097 157.111C123.869 158.813 141.349 155.24 156.077 140.044L153.923 137.956C139.96 152.362 123.462 155.751 108.419 154.129C93.3181 152.5 79.7323 145.815 71.8758 140.165L70.1242 142.6Z" fill="black"/>
<path d="M10.6775 74.8872L8.46547 79.02L12.6659 76.9391L60.959 53.014L111.857 90.9143L112.674 91.5224L113.541 90.9879L175.174 52.9749L223.546 76.9391L225.411 74.6947C223.322 71.91 220.914 66.9125 217.983 60.6787C217.783 60.2529 217.58 59.8219 217.376 59.3863C214.621 53.5201 211.466 46.8009 207.81 40.2669C203.884 33.2508 199.342 26.3759 194.025 20.9351C188.706 15.4923 182.536 11.4078 175.356 10.1335C166.558 8.57177 144.594 7.70769 121.62 7.65758C98.6154 7.6074 74.3587 8.37356 60.9235 10.123L60.8344 10.1346L60.7474 10.1567C54.0892 11.8507 48.0614 16.0659 42.6944 21.4919C37.3208 26.9246 32.5286 33.6532 28.3504 40.52C24.1688 47.3925 20.5766 54.4463 17.6165 60.5497C16.4986 62.8547 15.4776 65.0093 14.5504 66.9659C13.0029 70.2315 11.7167 72.9456 10.6775 74.8872Z" fill="#F3EFD2" stroke="black" stroke-width="3"/>
</g>
<defs>
<filter id="filter0_d_36_2288" x="0.931152" y="0" width="297.692" height="382.861" filterUnits="userSpaceOnUse" color-interpolation-filters="sRGB">
<feFlood flood-opacity="0" result="BackgroundImageFix"/>
<feColorMatrix in="SourceAlpha" type="matrix" values="0 0 0 0 0 0 0 0 0 0 0 0 0 0 0 0 0 0 127 0" result="hardAlpha"/>
<feOffset dy="4"/>
<feGaussianBlur stdDeviation="2"/>
<feComposite in2="hardAlpha" operator="out"/>
<feColorMatrix type="matrix" values="0 0 0 0 0 0 0 0 0 0 0 0 0 0 0 0 0 0 0.25 0"/>
<feBlend mode="normal" in2="BackgroundImageFix" result="effect1_dropShadow_36_2288"/>
<feBlend mode="normal" in="SourceGraphic" in2="effect1_dropShadow_36_2288" result="shape"/>
</filter>
</defs>
</svg>
