<svg width="224" height="190" viewBox="0 0 224 190" fill="none" xmlns="http://www.w3.org/2000/svg">
<path d="M50.4339 9.11625L47.2139 10.3505L50.3121 11.8646L52.297 12.8346C49.9637 12.3862 47.7078 12.1122 45.6439 12.0941C42.4528 12.0662 39.4348 12.647 37.3828 14.462C30.7416 20.3364 27.2804 25.3117 26.3283 27.2277L26.2915 27.3016C23.7387 27.5904 21.376 27.9424 19.2999 28.3685C16.7272 28.8965 14.4895 29.5584 12.8595 30.412C11.3152 31.2208 9.79916 32.4871 9.79916 34.4121C9.79916 38.5839 12.1355 41.0947 14.8918 42.4399C15.7991 42.8828 16.7585 43.2056 17.7104 43.4335C14.6457 45.414 11.3782 48.0882 8.91374 51.2923C5.19175 56.1313 3.18447 62.3844 6.82985 69.1558C8.87031 72.946 9.06153 74.6554 8.84179 75.5198C8.74335 75.9071 8.53476 76.2345 8.14972 76.6059C7.80891 76.9346 7.41194 77.2265 6.89356 77.6076C6.76014 77.7057 6.61868 77.8097 6.46806 77.9218C5.04999 78.9769 3.30577 80.4192 2.3099 83.2154C1.33624 85.9493 1.14326 89.7838 2.27075 95.5254C2.58077 97.1041 3.57552 98.4314 4.92071 99.5397C6.26587 100.648 8.06009 101.621 10.1886 102.491C14.4475 104.23 20.3225 105.663 27.3655 106.848C41.472 109.223 60.5863 110.655 81.5977 111.435C123.638 112.993 173.492 111.942 206.574 110.493L206.829 110.482L207.066 110.387C209.581 109.381 213.315 107.464 216.387 104.94C219.377 102.483 222.172 99.0906 221.857 95.1182C221.35 88.6945 219.118 71.6058 218.07 63.8982L215.118 63.7815L211.921 78.4861C209.063 69.4159 205.311 58.2285 201.798 49.2181C199.675 43.775 197.608 39.0437 195.853 36.0555C195.01 34.6203 194.107 33.3486 193.16 32.7C192.664 32.3603 191.9 32.0192 191.027 32.2689C190.169 32.5145 189.682 33.1977 189.411 33.7693C189.181 34.2523 188.988 34.7508 188.827 35.261C183.246 24.4 173.831 14.0856 159.28 14.0856C154.488 14.0856 151.264 14.2973 149.314 14.7008C141.519 11.2626 133.252 8.0096 127.176 6.51C124.151 5.76312 121.381 5.37232 119.468 5.82109C118.464 6.05645 117.438 6.58721 116.908 7.67837C116.396 8.73133 116.542 9.91747 116.937 11.0226C117.338 12.1416 117.285 12.6668 117.226 12.8417C117.225 12.8439 117.225 12.8464 117.224 12.8493C117.213 12.8887 117.185 12.9902 116.821 13.0724C116.361 13.1763 115.607 13.1694 114.523 12.9635C113.465 12.7627 112.212 12.3968 110.813 11.8933C105.19 9.86959 97.7999 5.84155 92.683 2.71953L91.9026 2.24337L91.1218 2.71874L80.4167 9.23563L78.8984 10.1599L80.0648 11.5012L84.1313 16.1772C67.5747 6.99589 55.2977 7.25197 50.4339 9.11625Z" fill="#F3EFD2" stroke="black" stroke-width="3"/>
<path d="M112.766 188.012C141.998 188.012 168.525 179.473 187.781 165.592C207.035 151.713 219.113 132.408 219.113 110.934C219.113 89.4597 207.035 70.1546 187.781 56.2756C168.525 42.395 141.998 33.8562 112.766 33.8562C83.5341 33.8562 57.0076 42.395 37.7516 56.2756C18.4977 70.1546 6.41992 89.4597 6.41992 110.934C6.41992 132.408 18.4977 151.713 37.7516 165.592C57.0076 179.473 83.5341 188.012 112.766 188.012Z" fill="#9D7A45" stroke="black" stroke-width="3"/>
<path d="M51.823 106.007C70.4203 106.007 85.3004 89.7431 85.3004 69.9315C85.3004 50.12 70.4203 33.8558 51.823 33.8558C33.2258 33.8558 18.3457 50.12 18.3457 69.9315C18.3457 89.7431 33.2258 106.007 51.823 106.007Z" fill="white" stroke="black" stroke-width="3"/>
<path d="M51.823 106.007C70.4203 106.007 85.3004 89.7431 85.3004 69.9315C85.3004 50.12 70.4203 33.8558 51.823 33.8558C33.2258 33.8558 18.3457 50.12 18.3457 69.9315C18.3457 89.7431 33.2258 106.007 51.823 106.007Z" fill="white" stroke="black" stroke-width="3"/>
<path d="M51.8224 90.6195C62.3262 90.6195 70.5803 81.2152 70.5803 69.9536C70.5803 58.6919 62.3262 49.2876 51.8224 49.2876C41.3186 49.2876 33.0645 58.6919 33.0645 69.9536C33.0645 81.2152 41.3186 90.6195 51.8224 90.6195Z" fill="#2DB051" stroke="black" stroke-width="3"/>
<path d="M144.743 106.008C163.34 106.008 178.22 89.7437 178.22 69.9321C178.22 50.1206 163.34 33.8564 144.743 33.8564C126.146 33.8564 111.266 50.1206 111.266 69.9321C111.266 89.7437 126.146 106.008 144.743 106.008Z" fill="white" stroke="black" stroke-width="3"/>
<path d="M144.743 106.008C163.34 106.008 178.22 89.7437 178.22 69.9321C178.22 50.1206 163.34 33.8564 144.743 33.8564C126.146 33.8564 111.266 50.1206 111.266 69.9321C111.266 89.7437 126.146 106.008 144.743 106.008Z" fill="white" stroke="black" stroke-width="3"/>
<path d="M144.743 90.6202C155.247 90.6202 163.501 81.2158 163.501 69.9542C163.501 58.6925 155.247 49.2882 144.743 49.2882C134.239 49.2882 125.985 58.6925 125.985 69.9542C125.985 81.2158 134.239 90.6202 144.743 90.6202Z" fill="#2DB051" stroke="black" stroke-width="3"/>
<path d="M57.8079 133.838C56.9851 133.934 56.3957 134.679 56.4915 135.501L58.0531 148.911C58.149 149.734 58.8937 150.323 59.7166 150.227C60.5394 150.131 61.1288 149.387 61.033 148.564L59.6449 136.644L71.5643 135.256C72.3872 135.16 72.9766 134.416 72.8808 133.593C72.7849 132.77 72.0402 132.181 71.2173 132.276L57.8079 133.838ZM142.856 132.631C142.803 131.804 142.091 131.176 141.264 131.229L127.791 132.082C126.964 132.135 126.336 132.847 126.389 133.674C126.441 134.501 127.154 135.129 127.981 135.076L139.957 134.318L140.715 146.294C140.768 147.12 141.48 147.748 142.307 147.696C143.134 147.643 143.762 146.931 143.709 146.104L142.856 132.631ZM57.0506 136.504C65.1767 142.935 79.1552 150.512 94.7862 152.367C110.497 154.232 127.874 150.304 142.484 133.717L140.233 131.734C126.365 147.478 110.016 151.154 95.1398 149.388C80.1834 147.613 66.7125 140.325 58.9123 134.152L57.0506 136.504Z" fill="black"/>
</svg>
