<svg width="228" height="171" viewBox="0 0 228 171" fill="none" xmlns="http://www.w3.org/2000/svg">
<path d="M24.8081 63.5527C24.8081 62.3198 24.6523 61.1175 24.3597 59.9732C28.356 58.1956 31.1808 54.0265 31.6321 49.2072C36.6607 48.5258 40.5491 44.3112 41.58 39.0504C44.7541 38.6837 47.4887 36.9129 49.3596 34.3521C50.6885 34.9454 52.1472 35.2742 53.6915 35.2742C57.7484 35.2742 61.2148 33.0055 63.2877 29.6312C65.0206 30.7956 67.0606 31.4727 69.2767 31.4727C73.7121 31.4727 77.4417 28.7609 79.4162 24.8574C81.3659 26.555 83.8267 27.5806 86.5544 27.5806C90.2287 27.5806 93.4187 25.7196 95.5277 22.8618C97.6367 25.7196 100.827 27.5806 104.501 27.5806C108.063 27.5806 111.17 25.8319 113.278 23.1215C115.386 25.8319 118.492 27.5806 122.054 27.5806C125.561 27.5806 128.627 25.8855 130.732 23.2464C132.838 25.8855 135.904 27.5806 139.41 27.5806C141.48 27.5806 143.395 26.9905 145.05 25.9645C147.132 29.2643 150.56 31.4727 154.563 31.4727C155.71 31.4727 156.81 31.2912 157.845 30.9547C159.546 35.6722 163.651 39.1209 168.653 39.1209C170.043 39.1209 171.365 38.8543 172.584 38.3679C174.222 43.2285 178.39 46.8145 183.49 46.8145C183.752 46.8145 184.012 46.805 184.268 46.7864C184.915 53.1523 189.705 58.3548 195.848 58.3548C195.91 58.3548 195.973 58.3543 196.035 58.3532C196.012 58.6808 196.001 59.0112 196.001 59.3439C196.001 64.7452 198.99 69.559 203.383 71.4885C203.086 72.6403 202.928 73.8511 202.928 75.093C202.928 82.1089 207.971 88.1333 214.582 88.1333C221.193 88.1333 226.236 82.1089 226.236 75.093C226.236 69.6917 223.247 64.8779 218.854 62.9484C219.151 61.7966 219.309 60.5858 219.309 59.3439C219.309 52.328 214.266 46.3036 207.655 46.3036C207.593 46.3036 207.53 46.3041 207.468 46.3052C207.491 45.9775 207.502 45.6471 207.502 45.3145C207.502 38.2986 202.459 32.2742 195.848 32.2742C195.586 32.2742 195.326 32.2836 195.07 32.3022C194.423 25.9363 189.633 20.7339 183.49 20.7339C182.099 20.7339 180.778 21.0005 179.558 21.4869C177.92 16.6263 173.753 13.0403 168.653 13.0403C167.505 13.0403 166.405 13.2217 165.371 13.5583C163.669 8.84075 159.565 5.39203 154.563 5.39203C152.494 5.39203 150.578 5.98217 148.923 7.00814C146.841 3.7084 143.413 1.5 139.41 1.5C135.904 1.5 132.838 3.19515 130.732 5.83423C128.627 3.19515 125.561 1.5 122.054 1.5C118.492 1.5 115.386 3.24875 113.278 5.95913C111.17 3.24875 108.063 1.5 104.501 1.5C100.827 1.5 97.6367 3.36099 95.5277 6.21885C93.4187 3.36099 90.2287 1.5 86.5544 1.5C82.119 1.5 78.3894 4.21175 76.4149 8.11529C74.4652 6.41762 72.0044 5.39203 69.2767 5.39203C65.2199 5.39203 61.7534 7.66071 59.6805 11.035C57.9476 9.87055 55.9076 9.19354 53.6915 9.19354C49.9958 9.19354 46.7901 11.0762 44.6815 13.9624C43.3526 13.3691 41.8938 13.0403 40.3495 13.0403C34.6351 13.0403 30.0922 17.5415 28.9651 23.2935C23.3862 23.9381 19.1653 28.9201 18.6048 34.9049C12.7136 35.7031 8.38743 41.3507 8.38743 47.8488C8.38743 49.0817 8.54317 50.284 8.83578 51.4284C4.46837 53.3711 1.5 58.1701 1.5 63.5527C1.5 70.5685 6.54308 76.593 13.154 76.593C19.765 76.593 24.8081 70.5685 24.8081 63.5527Z" fill="#E3C83C" stroke="black" stroke-width="3"/>
<path d="M113.868 169.192C143.1 169.192 169.626 160.653 188.883 146.772C208.136 132.893 220.214 113.588 220.214 92.1139C220.214 70.6396 208.136 51.3346 188.883 37.4555C169.626 23.5749 143.1 15.0361 113.868 15.0361C84.6357 15.0361 58.1092 23.5749 38.8531 37.4555C19.5992 51.3346 7.52148 70.6396 7.52148 92.1139C7.52148 113.588 19.5992 132.893 38.8531 146.772C58.1092 160.653 84.6357 169.192 113.868 169.192Z" fill="#DCAF6A" stroke="black" stroke-width="3"/>
<path d="M52.9246 87.1851C71.5218 87.1851 86.402 70.9209 86.402 51.1094C86.402 31.2978 71.5218 15.0337 52.9246 15.0337C34.3274 15.0337 19.4473 31.2978 19.4473 51.1094C19.4473 70.9209 34.3274 87.1851 52.9246 87.1851Z" fill="white" stroke="black" stroke-width="3"/>
<path d="M52.9246 87.1851C71.5218 87.1851 86.402 70.9209 86.402 51.1094C86.402 31.2978 71.5218 15.0337 52.9246 15.0337C34.3274 15.0337 19.4473 31.2978 19.4473 51.1094C19.4473 70.9209 34.3274 87.1851 52.9246 87.1851Z" fill="white" stroke="black" stroke-width="3"/>
<path d="M52.9239 71.7973C63.4277 71.7973 71.6819 62.393 71.6819 51.1313C71.6819 39.8696 63.4277 30.4653 52.9239 30.4653C42.4201 30.4653 34.166 39.8696 34.166 51.1313C34.166 62.393 42.4201 71.7973 52.9239 71.7973Z" fill="#2DB051" stroke="black" stroke-width="3"/>
<path d="M145.846 87.188C164.444 87.188 179.324 70.9239 179.324 51.1123C179.324 31.3007 164.444 15.0366 145.846 15.0366C127.249 15.0366 112.369 31.3007 112.369 51.1123C112.369 70.9239 127.249 87.188 145.846 87.188Z" fill="white" stroke="black" stroke-width="3"/>
<path d="M145.846 87.188C164.444 87.188 179.324 70.9239 179.324 51.1123C179.324 31.3007 164.444 15.0366 145.846 15.0366C127.249 15.0366 112.369 31.3007 112.369 51.1123C112.369 70.9239 127.249 87.188 145.846 87.188Z" fill="white" stroke="black" stroke-width="3"/>
<path d="M145.846 71.8002C156.35 71.8002 164.604 62.3959 164.604 51.1342C164.604 39.8726 156.35 30.4683 145.846 30.4683C135.342 30.4683 127.088 39.8726 127.088 51.1342C127.088 62.3959 135.342 71.8002 145.846 71.8002Z" fill="#2DB051" stroke="black" stroke-width="3"/>
<path d="M58.9105 115.014C58.0876 115.109 57.4982 115.854 57.5941 116.677L59.1557 130.086C59.2515 130.909 59.9962 131.499 60.8191 131.403C61.642 131.307 62.2314 130.562 62.1355 129.739L60.7474 117.82L72.6669 116.432C73.4897 116.336 74.0791 115.591 73.9833 114.768C73.8875 113.946 73.1427 113.356 72.3198 113.452L58.9105 115.014ZM143.958 113.807C143.906 112.98 143.193 112.352 142.366 112.404L128.893 113.258C128.067 113.31 127.439 114.023 127.491 114.85C127.544 115.677 128.256 116.304 129.083 116.252L141.059 115.493L141.818 127.469C141.87 128.296 142.583 128.924 143.41 128.871C144.236 128.819 144.864 128.106 144.812 127.28L143.958 113.807ZM58.1531 117.68C66.2792 124.111 80.2577 131.687 95.8887 133.543C111.6 135.407 128.976 131.48 143.587 114.893L141.336 112.91C127.467 128.654 111.119 132.329 96.2423 130.563C81.2859 128.788 67.8151 121.5 60.0148 115.327L58.1531 117.68Z" fill="black"/>
</svg>
