<svg width="441" height="827" viewBox="0 0 441 827" fill="none" xmlns="http://www.w3.org/2000/svg">
<ellipse cx="62" cy="51" rx="62" ry="51" transform="matrix(-0.839489 -0.543377 -0.543377 0.839489 252.873 432.056)" fill="white"/>
<ellipse cx="62" cy="51" rx="62" ry="51" transform="matrix(-0.839489 -0.543377 -0.543377 0.839489 322.309 438.882)" fill="white"/>
<ellipse cx="62" cy="51" rx="62" ry="51" transform="matrix(-0.839489 -0.543377 -0.543377 0.839489 297.973 362.379)" fill="white"/>
<path d="M206.309 441C143.142 445.833 14.5091 484 5.30905 598C-6.19095 740.5 307.309 624.5 269.809 749.5" stroke="white" stroke-width="10"/>
<path d="M525.361 388.597C549.261 447.267 572.591 579.399 474.715 638.567C352.369 712.527 316.069 380.231 220.996 469.631" stroke="white" stroke-width="10"/>
<path d="M186 422.5C249.167 417.667 377.8 379.5 387 265.5C398.5 123 85 239 122.5 114" stroke="white" stroke-width="10"/>
<path d="M237.809 724C243.686 764.943 276.142 809.333 291.809 820C351.009 760.8 309.476 711.333 291.809 704C279.476 697.333 232.869 689.582 237.809 724Z" fill="white" stroke="white" stroke-width="10"/>
<path d="M66.6162 30.7693C72.4932 71.7122 104.949 116.103 120.616 126.769C179.816 67.5693 138.283 18.1027 120.616 10.7693C108.283 4.10265 61.6758 -3.64801 66.6162 30.7693Z" fill="white" stroke="white" stroke-width="10"/>
<ellipse cx="27.95" cy="28.3696" rx="27.95" ry="28.3696" transform="matrix(-0.839489 -0.543377 -0.543377 0.839489 242.758 413.375)" fill="#65C0F8"/>
<ellipse cx="18.9527" cy="20.4944" rx="18.9527" ry="20.4944" transform="matrix(-0.839489 -0.543377 -0.543377 0.839489 245.094 413.597)" fill="white"/>
</svg>
