<svg width="291" height="375" viewBox="0 0 291 375" fill="none" xmlns="http://www.w3.org/2000/svg">
<path d="M58.7696 363.305L98.8705 325.12L170.93 370.009L171.833 370.571L172.663 369.905L228.417 325.14L286.664 369.925L289.101 371.798L289.079 368.725C288.658 311.585 283.302 225.098 268.584 151.339C261.227 114.469 251.514 80.6898 238.859 55.3301C226.243 30.0471 210.488 12.7129 190.842 9.55019C143.58 1.94167 117.936 0.651428 101.462 1.93261C89.8573 2.83514 82.72 5.04411 75.9765 7.1312C73.1659 8.00105 70.4238 8.84974 67.4551 9.57385C62.9424 10.6746 59.7013 13.0701 57.4908 16.2397C55.3024 19.3775 54.1725 23.2008 53.7109 27.1302C52.8028 34.8603 54.4391 43.3607 56.2352 48.9223V362.219V365.718L58.7696 363.305Z" fill="#F3EFD2" stroke="black" stroke-width="3"/>
<path d="M122.017 192.315C151.249 192.315 177.775 183.777 197.031 169.896C216.285 156.017 228.363 136.712 228.363 115.238C228.363 93.7634 216.285 74.4583 197.031 60.5793C177.775 46.6987 151.249 38.1599 122.017 38.1599C92.7846 38.1599 66.2581 46.6987 47.0021 60.5793C27.7482 74.4583 15.6704 93.7634 15.6704 115.238C15.6704 136.712 27.7482 156.017 47.0021 169.896C66.2581 183.777 92.7846 192.315 122.017 192.315Z" fill="#543300" stroke="black" stroke-width="3"/>
<path d="M61.073 110.313C79.6703 110.313 94.5504 94.0491 94.5504 74.2375C94.5504 54.426 79.6703 38.1619 61.073 38.1619C42.4758 38.1619 27.5957 54.426 27.5957 74.2375C27.5957 94.0491 42.4758 110.313 61.073 110.313Z" fill="white" stroke="black" stroke-width="3"/>
<path d="M61.073 110.313C79.6703 110.313 94.5504 94.0491 94.5504 74.2375C94.5504 54.426 79.6703 38.1619 61.073 38.1619C42.4758 38.1619 27.5957 54.426 27.5957 74.2375C27.5957 94.0491 42.4758 110.313 61.073 110.313Z" fill="white" stroke="black" stroke-width="3"/>
<path d="M61.0724 94.9256C71.5762 94.9256 79.8303 85.5213 79.8303 74.2596C79.8303 62.9979 71.5762 53.5936 61.0724 53.5936C50.5686 53.5936 42.3145 62.9979 42.3145 74.2596C42.3145 85.5213 50.5686 94.9256 61.0724 94.9256Z" fill="#1480FF" stroke="black" stroke-width="3"/>
<path d="M26.6725 72.6891L26.3673 74.4459H28.1504H93.1874H94.7809L94.6847 72.8553C93.8642 59.2969 88.5901 50.6651 81.8411 45.345C75.1451 40.0666 67.1461 38.1631 60.9998 37.7336C48.1689 36.837 31.1264 47.0585 26.6725 72.6891Z" fill="#543300" stroke="black" stroke-width="3"/>
<path d="M153.994 110.318C172.592 110.318 187.472 94.0542 187.472 74.2427C187.472 54.4311 172.592 38.167 153.994 38.167C135.397 38.167 120.517 54.4311 120.517 74.2427C120.517 94.0542 135.397 110.318 153.994 110.318Z" fill="white" stroke="black" stroke-width="3"/>
<path d="M153.994 110.318C172.592 110.318 187.472 94.0542 187.472 74.2427C187.472 54.4311 172.592 38.167 153.994 38.167C135.397 38.167 120.517 54.4311 120.517 74.2427C120.517 94.0542 135.397 110.318 153.994 110.318Z" fill="white" stroke="black" stroke-width="3"/>
<path d="M153.995 94.9307C164.499 94.9307 172.753 85.5264 172.753 74.2647C172.753 63.0031 164.499 53.5988 153.995 53.5988C143.491 53.5988 135.237 63.0031 135.237 74.2647C135.237 85.5264 143.491 94.9307 153.995 94.9307Z" fill="#1480FF" stroke="black" stroke-width="3"/>
<path d="M119.477 72.6751L119.171 74.4319H120.955H185.992H187.585L187.489 72.8413C186.668 59.2829 181.394 50.6511 174.645 45.3311C167.949 40.0527 159.95 38.1492 153.804 37.7197C140.973 36.8231 123.931 47.0446 119.477 72.6751Z" fill="#543300" stroke="black" stroke-width="3"/>
<path d="M66.7582 139.902C65.9406 140.036 65.3861 140.807 65.5196 141.625L67.6955 154.948C67.829 155.766 68.6 156.32 69.4176 156.187C70.2352 156.053 70.7898 155.282 70.6563 154.464L68.7222 142.621L80.5653 140.687C81.3829 140.554 81.9374 139.783 81.8039 138.965C81.6704 138.148 80.8993 137.593 80.0817 137.727L66.7582 139.902ZM152.5 138.977C152.487 138.148 151.805 137.487 150.977 137.5L137.478 137.711C136.65 137.724 135.989 138.406 136.002 139.235C136.015 140.063 136.697 140.724 137.525 140.711L149.524 140.523L149.711 152.522C149.724 153.35 150.406 154.011 151.235 153.998C152.063 153.985 152.724 153.303 152.711 152.475L152.5 138.977ZM66.1242 142.601C74.3131 148.49 88.3816 155.416 104.097 157.111C119.869 158.813 137.349 155.241 152.077 140.044L149.923 137.956C135.96 152.363 119.462 155.752 104.419 154.129C89.3181 152.5 75.7323 145.816 67.8758 140.165L66.1242 142.601Z" fill="black"/>
<path d="M56.9235 10.1231L56.8344 10.1347L56.7474 10.1569C50.0892 11.8508 44.0614 16.066 38.6944 21.492C33.3208 26.9247 28.5286 33.6533 24.3504 40.5202C20.1688 47.3926 16.5766 54.4464 13.6165 60.5498C12.4986 62.8548 11.4776 65.0094 10.5504 66.966C9.00285 70.2316 7.71669 72.9457 6.67751 74.8873L4.46547 79.0202L8.66589 76.9392L56.959 53.0141L107.857 90.9144L108.674 91.5225L109.541 90.988L171.174 52.9751L219.546 76.9392L221.411 74.6948C219.322 71.9102 216.914 66.9127 213.983 60.6788C213.783 60.2529 213.58 59.8218 213.376 59.3861C210.621 53.52 207.466 46.8009 203.81 40.267C199.884 33.251 195.342 26.376 190.025 20.9352C184.706 15.4924 178.536 11.4079 171.356 10.1336C162.558 8.57189 140.594 7.70781 117.62 7.6577C94.6154 7.60753 70.3587 8.37369 56.9235 10.1231Z" fill="#F3EFD2" stroke="black" stroke-width="3"/>
</svg>
