<svg width="256" height="208" viewBox="0 0 256 208" fill="none" xmlns="http://www.w3.org/2000/svg">
<path d="M83.1869 32.6775C78.8583 31.751 71.3374 27.1187 75.8824 16.0012C84.3231 7.10715 93.4672 12.2953 96.9842 16.0012L83.1869 32.6775Z" fill="#E3C83C" stroke="black" stroke-width="3"/>
<path d="M156.795 25.4078C153.628 21.8912 150.187 11.8036 160.892 7.45896C172.227 5.28666 175.143 14.9173 176.301 20.2385L156.795 25.4078Z" fill="#E3C83C" stroke="black" stroke-width="3"/>
<path d="M17.1468 181.82C18.9041 181.251 27.7762 169.732 49.2061 128.211L36.5726 124.136C42.8441 140.142 20.1005 164.442 7.94479 174.591L17.1468 181.82Z" fill="#E3C83C" stroke="black" stroke-width="3"/>
<path d="M238.277 175.236C236.52 174.666 227.648 163.147 206.218 121.626L218.852 117.551C212.58 133.557 235.324 157.857 247.48 168.006L238.277 175.236Z" fill="#E3C83C" stroke="black" stroke-width="3"/>
<path d="M42.4523 181.88C41.5609 180.485 42.5415 168.865 53.5955 133.549L65.1845 139.257C50.5646 143.824 51.3669 170.844 53.5955 183.783L42.4523 181.88Z" fill="#E3C83C" stroke="black" stroke-width="3"/>
<path d="M216.101 181.88C216.993 180.485 216.012 168.865 204.958 133.549L193.369 139.257C207.989 143.824 207.187 170.844 204.958 183.783L216.101 181.88Z" fill="#E3C83C" stroke="black" stroke-width="3"/>
<path d="M62.2955 203.32C61.3766 201.384 62.3874 185.263 73.7822 136.266L85.7284 144.185C70.6579 150.521 71.4849 188.008 73.7822 205.96L62.2955 203.32Z" fill="#E3C83C" stroke="black" stroke-width="3"/>
<path d="M193.148 203.32C194.067 201.384 193.056 185.263 181.662 136.266L169.715 144.185C184.786 150.521 183.959 188.008 181.662 205.96L193.148 203.32Z" fill="#E3C83C" stroke="black" stroke-width="3"/>
<path d="M195.128 38.7441C199.241 36.9369 201.339 32.3992 195.128 22.4038C185.434 15.4018 181.826 20.8223 178.946 25.1954L195.128 38.7441Z" fill="#E3C83C" stroke="black" stroke-width="3"/>
<path d="M129.414 164.92C158.646 164.92 185.172 156.382 204.428 142.501C223.682 128.622 235.76 109.317 235.76 87.8426C235.76 66.3684 223.682 47.0633 204.428 33.1843C185.172 19.3037 158.646 10.7649 129.414 10.7649C100.182 10.7649 73.6551 19.3037 54.399 33.1843C35.1451 47.0633 23.0674 66.3684 23.0674 87.8426C23.0674 109.317 35.1451 128.622 54.399 142.501C73.6551 156.382 100.182 164.92 129.414 164.92Z" fill="#FFE7C4" stroke="black" stroke-width="3"/>
<path d="M68.47 82.9202C87.0672 82.9202 101.947 66.656 101.947 46.8445C101.947 27.0329 87.0672 10.7688 68.47 10.7688C49.8728 10.7688 34.9927 27.0329 34.9927 46.8445C34.9927 66.656 49.8728 82.9202 68.47 82.9202Z" fill="white" stroke="black" stroke-width="3"/>
<path d="M68.47 82.9202C87.0672 82.9202 101.947 66.656 101.947 46.8445C101.947 27.0329 87.0672 10.7688 68.47 10.7688C49.8728 10.7688 34.9927 27.0329 34.9927 46.8445C34.9927 66.656 49.8728 82.9202 68.47 82.9202Z" fill="white" stroke="black" stroke-width="3"/>
<path d="M68.4698 67.5324C78.9736 67.5324 87.2278 58.1281 87.2278 46.8664C87.2278 35.6047 78.9736 26.2004 68.4698 26.2004C57.966 26.2004 49.7119 35.6047 49.7119 46.8664C49.7119 58.1281 57.966 67.5324 68.4698 67.5324Z" fill="#1480FF" stroke="black" stroke-width="3"/>
<path d="M34.07 45.2959L33.7647 47.0527H35.5479H100.585H102.178L102.082 45.4621C101.262 31.9037 95.9876 23.2719 89.2386 17.9518C82.5425 12.6734 74.5436 10.7699 68.3972 10.3404C55.5663 9.44385 38.5238 19.6653 34.07 45.2959Z" fill="#FFE7C4" stroke="black" stroke-width="3"/>
<path d="M161.391 82.9209C179.989 82.9209 194.869 66.6568 194.869 46.8452C194.869 27.0337 179.989 10.7695 161.391 10.7695C142.794 10.7695 127.914 27.0337 127.914 46.8452C127.914 66.6568 142.794 82.9209 161.391 82.9209Z" fill="white" stroke="black" stroke-width="3"/>
<path d="M161.391 82.9209C179.989 82.9209 194.869 66.6568 194.869 46.8452C194.869 27.0337 179.989 10.7695 161.391 10.7695C142.794 10.7695 127.914 27.0337 127.914 46.8452C127.914 66.6568 142.794 82.9209 161.391 82.9209Z" fill="white" stroke="black" stroke-width="3"/>
<path d="M161.392 67.5353C171.896 67.5353 180.15 58.131 180.15 46.8693C180.15 35.6077 171.896 26.2034 161.392 26.2034C150.888 26.2034 142.634 35.6077 142.634 46.8693C142.634 58.131 150.888 67.5353 161.392 67.5353Z" fill="#1480FF" stroke="black" stroke-width="3"/>
<path d="M126.874 45.2798L126.568 47.0366H128.352H193.389H194.982L194.886 45.446C194.065 31.8876 188.791 23.2558 182.042 17.9357C175.346 12.6573 167.347 10.7538 161.201 10.3243C148.37 9.42774 131.328 19.6492 126.874 45.2798Z" fill="#FFE7C4" stroke="black" stroke-width="3"/>
<path d="M74.4554 110.749C73.6325 110.845 73.0431 111.59 73.139 112.412L74.7006 125.822C74.7964 126.645 75.5412 127.234 76.364 127.138C77.1869 127.042 77.7763 126.298 77.6804 125.475L76.2923 113.555L88.2118 112.167C89.0347 112.071 89.624 111.327 89.5282 110.504C89.4324 109.681 88.6876 109.092 87.8648 109.187L74.4554 110.749ZM159.503 109.542C159.451 108.715 158.738 108.087 157.911 108.14L144.438 108.993C143.612 109.046 142.984 109.758 143.036 110.585C143.089 111.412 143.801 112.04 144.628 111.987L156.604 111.229L157.363 123.205C157.415 124.031 158.128 124.659 158.955 124.607C159.781 124.554 160.409 123.842 160.357 123.015L159.503 109.542ZM73.6981 113.415C81.8242 119.846 95.8027 127.423 111.434 129.278C127.145 131.143 144.521 127.215 159.132 110.628L156.881 108.645C143.012 124.389 126.663 128.065 111.787 126.299C96.8309 124.524 83.36 117.236 75.5598 111.063L73.6981 113.415Z" fill="black"/>
<path d="M102.961 25.1892C98.895 23.2468 92.3776 16.9155 98.8359 7.12964C108.702 0.451227 116.706 7.71488 119.475 12.1815L102.961 25.1892Z" fill="#E3C83C" stroke="black" stroke-width="3"/>
<path d="M128.72 23.6134C124.863 21.1555 118.992 14.0242 126.37 5.16278C136.836 -0.171351 144.096 8.07892 146.417 12.8708L128.72 23.6134Z" fill="#E3C83C" stroke="black" stroke-width="3"/>
</svg>
