<svg width="266" height="280" viewBox="0 0 266 280" fill="none" xmlns="http://www.w3.org/2000/svg">
<path d="M53.7995 136.724C53.6968 134.995 53.4486 133.306 53.0676 131.672C62.855 127.556 69.7141 117.289 69.7141 105.415C69.7141 89.9646 58.1024 77.2363 43.5374 77.2363C28.9724 77.2363 17.3608 89.9646 17.3608 105.415C17.3608 107.781 17.633 110.083 18.1465 112.285C8.35913 116.401 1.5 126.668 1.5 138.542C1.5 148.223 6.05868 156.835 13.0462 161.917C6.05868 166.999 1.5 175.611 1.5 185.292C1.5 200.742 13.1117 213.47 27.6767 213.47C29.6854 213.47 31.6379 213.228 33.5115 212.77C34.38 227.388 45.6449 239.131 59.6343 239.131C62.3266 239.131 64.918 238.696 67.3537 237.889C69.9725 250.398 80.3341 259.858 92.8908 259.858C98.2071 259.858 103.13 258.162 107.238 255.257C109.68 268.017 120.151 277.734 132.877 277.734C143.746 277.734 152.971 270.646 156.952 260.628C160.435 262.48 164.364 263.524 168.534 263.524C182.912 263.524 194.412 251.121 194.705 235.94C198.156 237.75 202.04 238.769 206.159 238.769C220.149 238.769 231.414 227.026 232.282 212.408C234.156 212.866 236.108 213.108 238.117 213.108C252.682 213.108 264.294 200.38 264.294 184.93C264.294 175.249 259.735 166.637 252.748 161.555C259.735 156.473 264.294 147.861 264.294 138.18C264.294 125.915 256.976 115.364 246.671 111.536C248.009 108.147 248.748 104.423 248.748 100.527C248.748 85.0769 237.136 72.3486 222.571 72.3486C208.006 72.3486 196.395 85.0769 196.395 100.527C196.395 112.793 203.713 123.343 214.017 127.171C212.889 130.029 212.187 133.125 211.994 136.362C210.121 135.904 208.168 135.662 206.159 135.662C191.594 135.662 179.983 148.39 179.983 163.84C179.983 164.882 180.036 165.912 180.139 166.926C179.312 166.841 178.474 166.798 177.626 166.798C169.014 166.798 161.436 171.247 156.678 178.078C155.461 177.892 154.216 177.795 152.949 177.795C145.419 177.795 138.678 181.198 133.923 186.619C129.953 181.64 124.389 178.161 118.047 177.122C114.913 165.415 104.907 156.751 92.8908 156.751C90.1985 156.751 87.6072 157.186 85.1714 157.993C82.5526 145.484 72.191 136.024 59.6343 136.024C57.6256 136.024 55.6731 136.266 53.7995 136.724Z" fill="#E3C83C" stroke="black" stroke-width="3"/>
<path d="M133.94 198.091C163.172 198.091 189.699 189.552 208.955 175.672C228.209 161.793 240.286 142.488 240.286 121.013C240.286 99.539 228.209 80.234 208.955 66.3549C189.699 52.4744 163.172 43.9355 133.94 43.9355C104.708 43.9355 78.1814 52.4744 58.9254 66.3549C39.6715 80.234 27.5938 99.539 27.5938 121.013C27.5938 142.488 39.6715 161.793 58.9254 175.672C78.1814 189.552 104.708 198.091 133.94 198.091Z" fill="#DCAF6A" stroke="black" stroke-width="3"/>
<path d="M72.9964 116.084C91.5936 116.084 106.474 99.8203 106.474 80.0088C106.474 60.1972 91.5936 43.9331 72.9964 43.9331C54.3992 43.9331 39.519 60.1972 39.519 80.0088C39.519 99.8203 54.3992 116.084 72.9964 116.084Z" fill="white" stroke="black" stroke-width="3"/>
<path d="M72.9964 116.084C91.5936 116.084 106.474 99.8203 106.474 80.0088C106.474 60.1972 91.5936 43.9331 72.9964 43.9331C54.3992 43.9331 39.519 60.1972 39.519 80.0088C39.519 99.8203 54.3992 116.084 72.9964 116.084Z" fill="white" stroke="black" stroke-width="3"/>
<path d="M72.9962 100.697C83.5 100.697 91.7541 91.2924 91.7541 80.0307C91.7541 68.7691 83.5 59.3647 72.9962 59.3647C62.4924 59.3647 54.2383 68.7691 54.2383 80.0307C54.2383 91.2924 62.4924 100.697 72.9962 100.697Z" fill="#2DB051" stroke="black" stroke-width="3"/>
<path d="M38.5959 78.4602L38.2906 80.217H40.0737H105.111H106.704L106.608 78.6264C105.787 65.068 100.513 56.4362 93.7645 51.1161C87.0684 45.8377 79.0694 43.9342 72.9231 43.5047C60.0922 42.6082 43.0497 52.8296 38.5959 78.4602Z" fill="#DCAF6A" stroke="black" stroke-width="3"/>
<path d="M165.917 116.087C184.515 116.087 199.395 99.8233 199.395 80.0117C199.395 60.2002 184.515 43.936 165.917 43.936C147.32 43.936 132.44 60.2002 132.44 80.0117C132.44 99.8233 147.32 116.087 165.917 116.087Z" fill="white" stroke="black" stroke-width="3"/>
<path d="M165.917 116.087C184.515 116.087 199.395 99.8233 199.395 80.0117C199.395 60.2002 184.515 43.936 165.917 43.936C147.32 43.936 132.44 60.2002 132.44 80.0117C132.44 99.8233 147.32 116.087 165.917 116.087Z" fill="white" stroke="black" stroke-width="3"/>
<path d="M165.917 100.7C176.42 100.7 184.675 91.2953 184.675 80.0336C184.675 68.772 176.42 59.3677 165.917 59.3677C155.413 59.3677 147.159 68.772 147.159 80.0336C147.159 91.2953 155.413 100.7 165.917 100.7Z" fill="#2DB051" stroke="black" stroke-width="3"/>
<path d="M131.399 78.4441L131.094 80.2009H132.877H197.914H199.507L199.411 78.6103C198.591 65.0519 193.317 56.4201 186.568 51.1C179.872 45.8216 171.873 43.9181 165.726 43.4886C152.895 42.592 135.853 52.8135 131.399 78.4441Z" fill="#DCAF6A" stroke="black" stroke-width="3"/>
<path d="M78.9822 143.913C78.1594 144.009 77.57 144.754 77.6658 145.577L79.2274 158.986C79.3233 159.809 80.068 160.398 80.8909 160.302C81.7137 160.206 82.3031 159.462 82.2073 158.639L80.8192 146.719L92.7387 145.331C93.5615 145.236 94.1509 144.491 94.0551 143.668C93.9592 142.845 93.2145 142.256 92.3916 142.351L78.9822 143.913ZM164.03 142.706C163.978 141.879 163.265 141.251 162.438 141.304L148.965 142.157C148.138 142.21 147.511 142.922 147.563 143.749C147.615 144.576 148.328 145.204 149.155 145.151L161.131 144.393L161.89 156.369C161.942 157.195 162.655 157.823 163.481 157.771C164.308 157.718 164.936 157.006 164.884 156.179L164.03 142.706ZM78.2249 146.579C86.351 153.01 100.33 160.587 115.961 162.442C131.672 164.307 149.048 160.379 163.659 143.792L161.407 141.809C147.539 157.553 131.19 161.229 116.314 159.463C101.358 157.688 87.8869 150.4 80.0866 144.227L78.2249 146.579Z" fill="black"/>
<path d="M22.2383 47.9477C21.9354 63.3942 33.2948 76.4201 47.8558 76.7976C59.5637 77.1012 69.5243 69.1286 73.1357 57.963C76.4652 59.7482 80.207 60.7969 84.1881 60.9001C92.9624 61.1276 100.755 56.7068 105.63 49.7772C110.246 54.9505 116.687 58.2571 123.918 58.4446C132.734 58.6732 140.559 54.2094 145.429 47.2234C149.585 56.3655 158.204 62.8192 168.39 63.0833C173.539 63.2168 178.35 61.7497 182.431 59.1143C185.079 71.2952 195.084 80.615 207.367 80.9335C221.928 81.311 233.787 68.8872 234.09 53.4406C234.393 37.994 223.033 24.9682 208.472 24.5907C203.323 24.4572 198.513 25.9243 194.431 28.5596C191.784 16.3788 181.779 7.05897 169.495 6.74047C160.679 6.5119 152.854 10.9757 147.984 17.9617C143.828 8.81959 135.209 2.36589 125.023 2.10178C116.248 1.87428 108.455 6.29514 103.581 13.2247C98.9653 8.0514 92.5239 4.74475 85.2929 4.55726C73.585 4.2537 63.6244 12.2263 60.0131 23.3919C56.6835 21.6067 52.9417 20.558 48.9606 20.4548C34.3996 20.0772 22.5412 32.5011 22.2383 47.9477Z" fill="#E3C83C" stroke="black" stroke-width="3"/>
</svg>
