<svg width="364" height="253" viewBox="0 0 364 253" fill="none" xmlns="http://www.w3.org/2000/svg">
<path d="M182 250.384C231.315 250.384 276.071 236.719 308.569 214.495C341.055 192.279 361.5 161.332 361.5 126.841C361.5 92.3494 341.055 61.4025 308.569 39.1869C276.071 16.9631 231.315 3.29785 182 3.29785C132.685 3.29785 87.9286 16.9631 55.4309 39.1869C22.9453 61.4025 2.5 92.3494 2.5 126.841C2.5 161.332 22.9453 192.279 55.4309 214.495C87.9286 236.719 132.685 250.384 182 250.384Z" fill="#F8D49D" stroke="black" stroke-width="5"/>
<path d="M79.1149 119.049C110.37 119.049 135.599 93.077 135.599 61.1737C135.599 29.2704 110.37 3.29834 79.1149 3.29834C47.8602 3.29834 22.6312 29.2704 22.6312 61.1737C22.6312 93.077 47.8602 119.049 79.1149 119.049Z" fill="white" stroke="black" stroke-width="5"/>
<path d="M79.1149 119.049C110.37 119.049 135.599 93.077 135.599 61.1737C135.599 29.2704 110.37 3.29834 79.1149 3.29834C47.8602 3.29834 22.6312 29.2704 22.6312 61.1737C22.6312 93.077 47.8602 119.049 79.1149 119.049Z" fill="white" stroke="black" stroke-width="5"/>
<path d="M79.115 94.4064C96.7077 94.4064 110.75 79.4197 110.75 61.2108C110.75 43.0019 96.7077 28.0151 79.115 28.0151C61.5224 28.0151 47.4805 43.0019 47.4805 61.2108C47.4805 79.4197 61.5224 94.4064 79.115 94.4064Z" fill="#D9D9D9" stroke="black" stroke-width="5"/>
<path d="M21.0775 58.6581L20.5371 61.6086H23.5366H133.331H135.996L135.826 58.9494C134.436 37.1638 125.499 23.3087 114.106 14.7884C102.812 6.34247 89.3315 3.30177 78.9813 2.61566C57.4515 1.18846 28.621 17.4748 21.0775 58.6581Z" fill="#F8D49D" stroke="black" stroke-width="5"/>
<path d="M235.984 119.048C267.238 119.048 292.467 93.0756 292.467 61.1722C292.467 29.2689 267.238 3.29688 235.984 3.29688C204.729 3.29688 179.5 29.2689 179.5 61.1722C179.5 93.0756 204.729 119.048 235.984 119.048Z" fill="white" stroke="black" stroke-width="5"/>
<path d="M235.984 119.048C267.238 119.048 292.467 93.0756 292.467 61.1722C292.467 29.2689 267.238 3.29688 235.984 3.29688C204.729 3.29688 179.5 29.2689 179.5 61.1722C179.5 93.0756 204.729 119.048 235.984 119.048Z" fill="white" stroke="black" stroke-width="5"/>
<path d="M235.984 94.404C253.577 94.404 267.619 79.4172 267.619 61.2083C267.619 42.9994 253.577 28.0127 235.984 28.0127C218.391 28.0127 204.349 42.9994 204.349 61.2083C204.349 79.4172 218.391 94.404 235.984 94.404Z" fill="#D9D9D9" stroke="black" stroke-width="5"/>
<path d="M177.747 58.6279L177.207 61.5783H180.206H290.001H292.665L292.496 58.9191C291.106 37.1335 282.169 23.2784 270.776 14.7581C259.482 6.31219 246.001 3.2715 235.651 2.58539C214.121 1.15818 185.291 17.4445 177.747 58.6279Z" fill="#F8D49D" stroke="black" stroke-width="5"/>
<path d="M89.1611 163.433C87.7942 163.628 86.8438 164.894 87.0384 166.261L90.2093 188.536C90.4038 189.903 91.6697 190.853 93.0366 190.659C94.4036 190.464 95.3539 189.198 95.1594 187.831L92.3408 168.031L112.141 165.213C113.508 165.018 114.459 163.752 114.264 162.385C114.069 161.018 112.803 160.068 111.437 160.262L89.1611 163.433ZM232.768 161.648C232.717 160.268 231.557 159.191 230.177 159.242L207.692 160.076C206.313 160.127 205.236 161.287 205.287 162.667C205.338 164.047 206.498 165.124 207.878 165.073L227.864 164.332L228.605 184.318C228.656 185.698 229.816 186.775 231.196 186.724C232.576 186.672 233.653 185.512 233.602 184.133L232.768 161.648ZM88.0124 167.908C101.731 178.207 125.313 190.329 151.665 193.296C178.13 196.276 207.433 190.011 232.102 163.442L228.438 160.04C205.03 185.251 177.398 191.162 152.225 188.328C126.941 185.48 104.183 173.795 91.0144 163.909L88.0124 167.908Z" fill="black"/>
</svg>
