<svg width="364" height="253" viewBox="0 0 364 253" fill="none" xmlns="http://www.w3.org/2000/svg">
<path d="M182 249.587C231.315 249.587 276.071 235.921 308.569 213.697C341.055 191.482 361.5 160.535 361.5 126.044C361.5 91.552 341.055 60.6051 308.569 38.3896C276.071 16.1657 231.315 2.50049 182 2.50049C132.685 2.50049 87.9286 16.1657 55.4309 38.3896C22.9453 60.6051 2.5 91.552 2.5 126.044C2.5 160.535 22.9453 191.482 55.4309 213.697C87.9286 235.921 132.685 249.587 182 249.587Z" fill="#FFE8C5" stroke="black" stroke-width="5"/>
<path d="M79.1149 118.252C110.37 118.252 135.599 92.2802 135.599 60.3768C135.599 28.4735 110.37 2.50146 79.1149 2.50146C47.8602 2.50146 22.6312 28.4735 22.6312 60.3768C22.6312 92.2802 47.8602 118.252 79.1149 118.252Z" fill="white" stroke="black" stroke-width="5"/>
<path d="M79.1149 118.252C110.37 118.252 135.599 92.2802 135.599 60.3768C135.599 28.4735 110.37 2.50146 79.1149 2.50146C47.8602 2.50146 22.6312 28.4735 22.6312 60.3768C22.6312 92.2802 47.8602 118.252 79.1149 118.252Z" fill="white" stroke="black" stroke-width="5"/>
<path d="M79.1151 93.6095C96.7078 93.6095 110.75 78.6228 110.75 60.4139C110.75 42.205 96.7078 27.2183 79.1151 27.2183C61.5225 27.2183 47.4806 42.205 47.4806 60.4139C47.4806 78.6228 61.5225 93.6095 79.1151 93.6095Z" fill="#D9D9D9" stroke="black" stroke-width="5"/>
<path d="M235.984 118.251C267.238 118.251 292.467 92.2787 292.467 60.3754C292.467 28.4721 267.238 2.5 235.984 2.5C204.729 2.5 179.5 28.4721 179.5 60.3754C179.5 92.2787 204.729 118.251 235.984 118.251Z" fill="white" stroke="black" stroke-width="5"/>
<path d="M235.984 118.251C267.238 118.251 292.467 92.2787 292.467 60.3754C292.467 28.4721 267.238 2.5 235.984 2.5C204.729 2.5 179.5 28.4721 179.5 60.3754C179.5 92.2787 204.729 118.251 235.984 118.251Z" fill="white" stroke="black" stroke-width="5"/>
<path d="M235.984 93.6071C253.577 93.6071 267.619 78.6203 267.619 60.4115C267.619 42.2026 253.577 27.2158 235.984 27.2158C218.391 27.2158 204.349 42.2026 204.349 60.4115C204.349 78.6203 218.391 93.6071 235.984 93.6071Z" fill="#D9D9D9" stroke="black" stroke-width="5"/>
<path d="M89.161 162.636C87.7941 162.831 86.8437 164.096 87.0383 165.463L90.2092 187.739C90.4038 189.106 91.6696 190.056 93.0366 189.862C94.4035 189.667 95.3539 188.401 95.1593 187.034L92.3407 167.234L112.141 164.415C113.508 164.221 114.458 162.955 114.264 161.588C114.069 160.221 112.803 159.27 111.436 159.465L89.161 162.636ZM232.768 160.851C232.717 159.471 231.557 158.394 230.177 158.445L207.692 159.279C206.313 159.33 205.236 160.49 205.287 161.87C205.338 163.25 206.498 164.327 207.878 164.276L227.864 163.534L228.605 183.521C228.656 184.9 229.816 185.977 231.196 185.926C232.576 185.875 233.653 184.715 233.602 183.335L232.768 160.851ZM88.0124 167.11C101.731 177.41 125.312 189.531 151.665 192.499C178.13 195.479 207.433 189.214 232.102 162.644L228.437 159.242C205.03 184.453 177.398 190.365 152.225 187.53C126.94 184.683 104.182 172.998 91.0144 163.112L88.0124 167.11Z" fill="black"/>
</svg>
